<svg width="17" height="17" viewBox="0 0 17 17" fill="none" xmlns="http://www.w3.org/2000/svg">
<g id="arrow-right">
<path id="Vector" d="M8.35618 2.17235L7.73746 2.79107C7.59103 2.93751 7.59103 3.17495 7.73746 3.32141L12.5853 8.1692H1.91553C1.70843 8.1692 1.54053 8.3371 1.54053 8.5442V9.4192C1.54053 9.62629 1.70843 9.7942 1.91553 9.7942H12.5853L7.73746 14.642C7.59103 14.7884 7.59103 15.0259 7.73746 15.1724L8.35618 15.7911C8.50262 15.9375 8.74006 15.9375 8.88653 15.7911L15.4307 9.24688C15.5772 9.10044 15.5772 8.86301 15.4307 8.71654L8.8865 2.17235C8.74006 2.02588 8.50262 2.02588 8.35618 2.17235Z" fill="#868E96"/>
</g>
</svg>
