<svg width="70" height="68" viewBox="0 0 70 68" fill="none" xmlns="http://www.w3.org/2000/svg">
<g id="Phone">
<path id="Vector" d="M34.1374 43.4297C38.7194 41.243 42.4151 37.5916 44.6221 33.0703C44.7824 32.7368 44.8517 32.3679 44.8234 32C44.795 31.632 44.6699 31.2777 44.4604 30.9719L39.9592 24.3313C39.7573 24.0379 39.6341 23.6988 39.6011 23.3458C39.5681 22.9928 39.6264 22.6373 39.7706 22.3125L45.1882 9.88126C45.3676 9.45639 45.6838 9.10143 46.088 8.87105C46.4922 8.64066 46.9621 8.54762 47.4253 8.60626C50.5457 9.00026 53.4136 10.5013 55.4923 12.8285C57.5709 15.1557 58.7179 18.1496 58.7186 21.25C58.7186 30.8309 54.8566 40.0195 47.9823 46.7942C41.1079 53.569 31.7842 57.375 22.0624 57.375C18.9164 57.3743 15.8785 56.2439 13.517 54.1954C11.1556 52.1469 9.63249 49.3206 9.23269 46.2453C9.17319 45.7889 9.2676 45.3258 9.50138 44.9274C9.73515 44.5291 10.0953 44.2175 10.5264 44.0406L23.1675 38.7016C23.4918 38.5627 23.8459 38.5046 24.1984 38.5324C24.5509 38.5602 24.8911 38.673 25.1889 38.8609L32.035 43.2969C32.3447 43.4944 32.7005 43.6103 33.0686 43.6335C33.4367 43.6568 33.8047 43.5866 34.1374 43.4297Z" fill="#005CA9" stroke="#005CA9" stroke-width="3.39" stroke-linecap="round" stroke-linejoin="round"/>
</g>
</svg>
