<svg width="59" height="59" viewBox="0 0 59 59" fill="none" xmlns="http://www.w3.org/2000/svg">
<g id="Layer_1" clip-path="url(#clip0_1166_25679)">
<path id="Vector" d="M29.0156 58.981C22.6633 58.981 16.311 58.981 9.95864 58.981C8.01489 58.981 6.92294 58.093 6.51063 56.1945C5.19214 50.1276 3.86912 44.0608 2.55516 37.9939C2.50532 37.7583 2.31955 37.4547 2.45095 37.2961C2.59141 37.1194 2.92669 37.2418 3.17589 37.2372C3.76038 37.2282 4.34486 37.2418 4.92935 37.2282C5.16949 37.2237 5.26463 37.2599 5.2601 37.5408C5.24198 38.8638 5.30088 40.1869 5.24198 41.5054C5.19214 42.6562 6.24331 44.165 7.70226 44.4323C8.18253 44.5229 8.66281 44.4731 9.14308 44.4776C9.35603 44.4776 9.43759 44.5456 9.46477 44.7585C9.73663 46.8156 10.0175 48.8681 10.303 50.9251C10.4661 52.1122 10.593 53.3038 10.824 54.4773C11.1004 55.9 12.4144 56.924 13.8597 56.9285C15.2915 56.9376 16.5692 55.9227 16.9 54.5136C17.0495 53.8702 16.9362 53.2358 16.8501 52.6015C16.5602 50.472 16.2611 48.3425 15.9666 46.213C15.8986 45.71 15.8262 45.2026 15.7537 44.6996C15.731 44.5501 15.7537 44.4912 15.9258 44.4686C17.5615 44.242 18.6534 43.0504 18.6942 41.4057C18.7259 40.1144 18.7123 38.8185 18.7033 37.5272C18.7033 37.3007 18.7576 37.2237 18.9978 37.2237C31.127 37.2282 43.2562 37.2282 55.3854 37.2282C55.7116 37.2282 55.7071 37.2282 55.6346 37.5589C55.0229 40.3681 54.4113 43.1773 53.8041 45.9819C53.052 49.4435 52.3135 52.9096 51.5387 56.3667C51.1535 58.0884 49.9891 58.9765 48.2311 58.9765C41.8335 58.9765 35.4313 58.9765 29.0337 58.9765L29.0156 58.981ZM45.8479 39.2671C44.2213 39.1901 42.93 40.3953 42.7215 41.8769C42.5358 43.1818 42.3591 44.4912 42.1778 45.7961C41.9015 47.7942 41.6205 49.7924 41.3578 51.7905C41.2581 52.5381 41.0859 53.2766 41.1493 54.0378C41.2762 55.5466 42.5131 56.7881 43.9993 56.8877C45.5896 56.992 46.9534 55.9861 47.2796 54.4547C47.3612 54.0695 47.402 53.6753 47.4563 53.2812C47.9366 49.7878 48.4214 46.299 48.8972 42.8057C49.1871 40.6581 47.402 39.1402 45.8479 39.2716V39.2671ZM26.8045 53.8566C26.723 52.3976 26.6595 51.3374 26.6052 50.2726C26.4692 47.5496 26.3424 44.8265 26.2064 42.1034C26.143 40.794 24.9876 39.2626 23.062 39.3079C21.1318 39.3577 19.8587 40.8484 19.9991 42.7876C20.0807 43.943 20.1396 45.1029 20.1939 46.2628C20.3163 48.8363 20.416 51.4099 20.5519 53.9789C20.6244 55.2883 21.3221 56.2217 22.5273 56.702C23.7235 57.1777 24.8562 56.9602 25.8077 56.0767C26.5598 55.379 26.8589 54.4864 26.7955 53.8566H26.8045ZM37.7738 48.1341C37.7738 48.1341 37.7829 48.1341 37.7874 48.1341C37.8372 47.1463 37.8826 46.1541 37.9324 45.1663C37.9822 44.2148 38.0864 43.2633 38.0774 42.3119C38.0593 40.6128 36.7181 39.326 34.9329 39.2897C33.3471 39.258 31.9969 40.4814 31.861 42.0717C31.8112 42.6426 31.7794 43.218 31.7658 43.7935C31.716 45.6149 31.5755 47.4272 31.5121 49.2487C31.4623 50.8028 31.3128 52.3568 31.3082 53.9109C31.3082 54.7945 31.6707 55.5375 32.3277 56.0948C33.3064 56.9331 34.4391 57.1777 35.6488 56.6567C36.8858 56.122 37.4793 55.1207 37.5337 53.7841C37.6107 51.8992 37.6968 50.0144 37.7783 48.1295L37.7738 48.1341Z" fill="#722ED1"/>
<path id="Vector_2" d="M16.5918 33.1284C16.5918 35.7971 16.5918 38.4703 16.5918 41.139C16.5918 41.9863 16.1976 42.4032 15.3413 42.4349C14.7659 42.453 14.1905 42.4394 13.615 42.4439C12.0383 42.4439 10.4615 42.4439 8.88931 42.4439C8.73979 42.4439 8.58574 42.4439 8.43622 42.4394C7.71581 42.3941 7.29443 41.9546 7.29443 41.2297C7.29443 35.8152 7.29443 30.3963 7.29443 24.9819C7.29443 24.2614 7.66144 23.8627 8.37732 23.7812C8.49965 23.7676 8.62199 23.7676 8.74432 23.7676C10.9146 23.7676 13.0849 23.7676 15.2552 23.7676C15.4229 23.7676 15.595 23.7812 15.7627 23.8084C16.2022 23.8854 16.5375 24.2524 16.5873 24.6964C16.6054 24.8369 16.61 24.9773 16.61 25.1178C16.61 27.7865 16.61 30.4597 16.61 33.1284C16.61 33.1284 16.6009 33.1284 16.5964 33.1284H16.5918Z" fill="#722ED1"/>
<path id="Vector_3" d="M37.887 35.1894C31.6027 35.1894 25.3138 35.1894 19.0294 35.1985C18.7304 35.1985 18.6715 35.1079 18.676 34.827C18.6896 33.658 18.6851 32.4845 18.676 31.3155C18.676 31.0708 18.7666 31.0074 18.9886 31.0119C19.9039 31.021 20.8191 31.0119 21.7344 31.0119C33.3788 31.0119 45.0277 31.0119 56.6721 31.0119C56.7673 31.0119 56.8624 31.0119 56.953 31.021C57.6372 31.0844 58.0314 31.5103 58.0359 32.199C58.0404 32.7926 58.0404 33.3861 58.0359 33.9842C58.0314 34.682 57.6417 35.1079 56.9394 35.1849C56.799 35.1985 56.6585 35.194 56.5135 35.194C50.3017 35.194 44.0943 35.194 37.8825 35.194L37.887 35.1894Z" fill="#722ED1"/>
<path id="Vector_4" d="M22.8446 28.9504C21.5714 28.9504 20.2982 28.9459 19.0205 28.9504C18.7713 28.9504 18.6807 28.887 18.6852 28.6151C18.7034 27.4054 18.6852 26.2002 18.6988 24.9904C18.7079 23.8124 18.2865 22.8609 17.2897 22.1949C17.258 22.1722 17.2218 22.1586 17.1946 22.1314C17.0451 21.991 16.7415 22.0317 16.7098 21.7961C16.6826 21.6013 16.7641 21.3884 16.8094 21.189C17.5888 17.6594 20.7695 15.2263 24.3715 15.4891C28.0008 15.7519 30.3614 18.3391 30.964 21.3884C31.0636 21.9003 31.0908 22.4169 31.0954 22.9379C31.1044 24.8545 31.1044 26.7711 31.118 28.6831C31.118 28.9006 31.0365 28.9595 30.8326 28.9504C30.3251 28.9323 29.8131 28.9278 29.3057 28.9368C29.0882 28.9368 29.0383 28.8689 29.0383 28.6604C29.0474 27.0928 29.0383 25.5251 29.0383 23.9619C29.0383 23.7036 29.0247 23.4499 28.8933 23.2234C28.6668 22.8292 28.1911 22.6344 27.747 22.7431C27.2849 22.8564 26.9994 23.2188 26.9994 23.7172C26.9949 25.3212 26.9949 26.9251 26.9949 28.529C26.9949 28.81 26.8575 28.9489 26.5826 28.9459C25.3366 28.9459 24.0906 28.9459 22.8446 28.9459V28.9504Z" fill="#722ED1"/>
<path id="Vector_5" d="M47.2571 0.981445C49.7219 0.981445 52.1821 0.990507 54.647 0.981445C55.1 0.981445 55.4716 1.11284 55.7887 1.43453C56.4004 2.05074 57.0211 2.65788 57.6238 3.27861C58.1539 3.82232 58.1493 4.34337 57.6238 4.88708C57.2749 5.24502 56.926 5.60296 56.5635 5.94731C56.0515 6.43664 55.5305 6.44571 55.014 5.95637C54.5201 5.48969 54.0534 4.99582 53.5686 4.52008C52.9343 3.90387 52.3996 3.90387 51.7834 4.5382C50.6552 5.70264 49.5361 6.87614 48.417 8.05417C48.2946 8.18104 48.1723 8.23541 48.0001 8.23541C47.1211 8.23088 46.2467 8.22635 45.3677 8.23541C45.1864 8.23541 45.0732 8.17651 44.969 8.03152C44.2032 6.99394 43.4239 5.95637 42.6537 4.92333C42.5631 4.80099 42.4634 4.68772 42.3773 4.56538C42.1236 4.21197 41.7837 4.06699 41.3533 4.07605C40.796 4.08964 40.2387 4.07605 39.6814 4.08964C39.4594 4.09417 39.3914 4.03527 39.396 3.80419C39.4141 2.94785 39.4186 2.08698 39.4096 1.23064C39.4096 0.990507 39.5138 0.981445 39.6995 0.981445C42.2187 0.981445 44.7379 0.981445 47.2571 0.981445Z" fill="#722ED1"/>
<path id="Vector_6" d="M3.15335 25.077C3.17147 24.3294 3.14429 23.3372 3.18507 22.3494C3.31193 19.4315 5.33271 16.6541 8.34122 15.8159C11.1549 15.032 13.6288 15.6936 15.6858 17.8004C15.7945 17.9137 15.8444 18.0043 15.7538 18.1629C15.1648 19.1959 14.7706 20.2969 14.6392 21.4886C14.6165 21.697 14.4897 21.7061 14.322 21.7061C12.3329 21.7061 10.3393 21.7061 8.35029 21.7061C7.18585 21.7061 6.29779 22.1954 5.67253 23.1605C5.39614 23.5864 5.24662 24.0621 5.24662 24.5741C5.24662 25.9153 5.23756 27.2519 5.24662 28.593C5.24662 28.8649 5.18772 28.9827 4.88868 28.9646C4.39935 28.9374 3.90548 28.951 3.41614 28.9646C3.19866 28.9691 3.14429 28.8966 3.14429 28.6882C3.15335 27.5645 3.14429 26.4408 3.14429 25.077H3.15335Z" fill="#722ED1"/>
<path id="Vector_7" d="M46.4143 28.9548C44.2938 28.9548 42.1688 28.9548 40.0484 28.9548C39.9577 28.9548 39.8354 29.0046 39.7856 28.9095C39.7357 28.8098 39.8626 28.7509 39.9124 28.6829C41.317 26.9295 42.2594 24.9404 42.9119 22.8018C43.0025 22.5028 43.1112 22.2128 43.1973 21.9138C43.2426 21.7552 43.3242 21.7099 43.4828 21.7099C45.6123 21.6918 47.7463 21.6918 49.8759 21.7099C50.0888 21.7099 50.1976 21.8005 50.2882 21.9772C51.3892 24.0977 52.2954 26.2951 53.0384 28.5651C53.1608 28.9457 53.1562 28.9503 52.753 28.9503C50.6416 28.9503 48.5257 28.9503 46.4143 28.9503V28.9548Z" fill="#722ED1"/>
<path id="Vector_8" d="M26.9993 6.45925C26.9993 6.6133 26.9993 6.77641 26.9993 6.93499C26.9993 9.17325 26.9903 11.407 26.9993 13.6452C26.9993 13.8899 26.945 13.9262 26.7139 13.8537C24.8154 13.2737 22.9125 13.2647 21.014 13.8718C20.8237 13.9307 20.7512 13.9262 20.7512 13.686C20.7603 11.3345 20.7512 8.98749 20.7512 6.63595C20.7512 6.49096 20.7467 6.38222 20.9461 6.45472C22.9034 7.14341 24.8653 7.12076 26.8272 6.47284C26.8634 6.45925 26.8997 6.45018 26.9359 6.44565C26.954 6.44565 26.9722 6.45472 27.0084 6.45925H26.9993ZM24.9061 10.3105C24.9061 9.72149 24.453 9.25934 23.8821 9.25481C23.2704 9.25481 22.8128 9.71696 22.8128 10.3286C22.8128 10.8995 23.284 11.3526 23.873 11.3526C24.4575 11.3526 24.9061 10.8995 24.9061 10.3105Z" fill="#722ED1"/>
<path id="Vector_9" d="M10.3664 8.23536C9.42398 8.23536 8.48155 8.23083 7.53913 8.23989C7.33977 8.23989 7.28086 8.19005 7.2854 7.99069C7.30352 7.49229 7.2718 6.9939 7.38054 6.50003C7.72036 4.93687 9.11588 4.04881 10.5612 4.12131C12.1244 4.19833 13.3568 5.40355 13.4655 6.9214C13.4927 7.27028 13.4837 7.61916 13.5018 7.96804C13.5154 8.17646 13.4338 8.24442 13.2254 8.24442C12.2739 8.23536 11.3224 8.24442 10.3664 8.24442V8.23536Z" fill="#722ED1"/>
<path id="Vector_10" d="M3.09888 35.19C2.49627 35.19 1.88913 35.199 1.28652 35.19C0.466432 35.1764 0.0405273 34.7323 0.0405273 33.9123C0.0405273 33.364 0.0405273 32.8158 0.0405273 32.2721C0.0405273 31.5018 0.40753 31.0623 1.17325 31.0397C2.4555 31.0034 3.73774 31.0306 5.02451 31.0261C5.19216 31.0261 5.25106 31.1031 5.25106 31.2753C5.24653 32.4941 5.24653 33.7084 5.25106 34.9272C5.25106 35.1265 5.18763 35.2081 4.97014 35.2036C4.34941 35.19 3.72415 35.199 3.10341 35.199L3.09888 35.19Z" fill="#722ED1"/>
<path id="Vector_11" d="M12.6046 44.4824C12.8765 44.4824 13.1529 44.487 13.4247 44.4824C13.5652 44.4824 13.6105 44.5323 13.6331 44.6773C13.9412 46.9925 14.2584 49.3124 14.5756 51.6276C14.6662 52.2892 14.7659 52.9507 14.8565 53.6167C14.929 54.1604 14.5982 54.6633 14.0953 54.7857C13.5788 54.908 13.0668 54.6271 12.8991 54.0834C12.7224 53.5125 12.7043 52.9144 12.6182 52.3254C12.3373 50.3273 12.0655 48.3292 11.7936 46.331C11.7211 45.8009 11.6577 45.2663 11.5716 44.7362C11.5353 44.5141 11.6214 44.4779 11.8117 44.487C12.0745 44.5005 12.3418 44.487 12.6046 44.487V44.4824Z" fill="#722ED1"/>
<path id="Vector_12" d="M10.3892 10.2786C11.3407 10.2786 12.2967 10.2831 13.2482 10.2786C13.443 10.2786 13.5155 10.333 13.511 10.5323C13.5019 11.588 13.5019 12.6437 13.5019 13.6994C13.5019 13.8897 13.443 13.9214 13.2663 13.8625C11.3498 13.2599 9.42865 13.2645 7.51208 13.8625C7.33085 13.9214 7.28101 13.8897 7.28101 13.6994C7.28554 12.6347 7.29007 11.5699 7.28101 10.5006C7.28101 10.3058 7.3535 10.2695 7.52567 10.2695C8.47716 10.2786 9.43318 10.2695 10.3847 10.2695L10.3892 10.2786Z" fill="#722ED1"/>
<path id="Vector_13" d="M39.3958 8.8651C39.3958 9.62176 39.3868 10.3739 39.3958 11.1306C39.4049 11.5927 39.2327 11.9552 38.8657 12.227C37.8599 12.9792 36.8631 13.7358 35.8482 14.4789C35.3679 14.8323 34.797 14.7371 34.439 14.2841C34.1038 13.8582 34.1581 13.2555 34.6112 12.8976C35.2954 12.3494 35.9977 11.8238 36.7136 11.3163C37.1576 10.9992 37.3388 10.605 37.3298 10.0658C37.3026 8.86057 37.3207 7.65082 37.3026 6.44107C37.3026 6.21453 37.3841 6.16469 37.579 6.16922C38.1091 6.17375 38.6347 6.17828 39.1648 6.16922C39.3596 6.16922 39.4004 6.25531 39.4004 6.43201C39.3959 7.24304 39.4004 8.05407 39.4004 8.8651H39.3958Z" fill="#722ED1"/>
<path id="Vector_14" d="M46.6271 19.6084C45.6847 19.6084 44.7422 19.6039 43.7998 19.6084C43.5823 19.6084 43.528 19.5359 43.5325 19.332C43.5461 18.8155 43.5325 18.2945 43.537 17.7779C43.537 16.9714 43.9221 16.5546 44.7377 16.5229C45.4536 16.5002 46.1695 16.5138 46.8853 16.5138C47.4336 16.5138 47.9773 16.5093 48.5255 16.5138C49.3094 16.5229 49.7307 16.9307 49.7489 17.7145C49.7625 18.2718 49.7489 18.8246 49.7579 19.3819C49.7579 19.5676 49.69 19.6265 49.5087 19.622C48.5482 19.6129 47.5876 19.622 46.6226 19.622C46.6226 19.6175 46.6226 19.6084 46.6226 19.6039L46.6271 19.6084Z" fill="#722ED1"/>
<path id="Vector_15" d="M34.2442 2.50383C34.2442 2.0598 34.2487 1.61577 34.2442 1.17174C34.2442 1.02222 34.294 0.981445 34.439 0.981445C35.3271 0.985976 36.2151 0.985976 37.0986 0.981445C37.2527 0.981445 37.3116 1.03129 37.3116 1.18987C37.3116 2.06886 37.3116 2.94332 37.3252 3.82232C37.3252 4.00808 37.2799 4.09417 37.0669 4.09417C36.197 4.08511 35.3316 4.08511 34.4617 4.09417C34.2532 4.09417 34.2079 4.02168 34.2125 3.83138C34.226 3.38735 34.2125 2.94332 34.2125 2.4993C34.2215 2.4993 34.2306 2.4993 34.2396 2.4993L34.2442 2.50383Z" fill="#722ED1"/>
<path id="Vector_16" d="M45.5761 12.3539C45.5761 11.7423 45.5806 11.1261 45.5761 10.5144C45.5761 10.3422 45.6078 10.2652 45.8026 10.2697C46.3508 10.2833 46.8991 10.2833 47.4428 10.2697C47.615 10.2697 47.6784 10.315 47.6784 10.4917C47.6784 11.7377 47.6784 12.9837 47.6784 14.2297C47.6784 14.4019 47.6059 14.4608 47.4383 14.4563C46.89 14.4517 46.3418 14.4472 45.7981 14.4563C45.5897 14.4563 45.5715 14.3475 45.5715 14.1889C45.5715 13.5773 45.5715 12.9611 45.5715 12.3494L45.5761 12.3539Z" fill="#722ED1"/>
<path id="Vector_17" d="M46.8266 42.3891C46.7043 43.2953 46.5774 44.1924 46.4551 45.0895C46.1787 47.0967 45.9068 49.1039 45.6305 51.1111C45.5036 52.0444 45.3767 52.9778 45.2363 53.9112C45.1411 54.5319 44.6427 54.8853 44.0401 54.7902C43.5236 54.7086 43.1566 54.183 43.2336 53.6076C43.5553 51.2515 43.8815 48.9 44.2032 46.5485C44.3981 45.1303 44.5838 43.7076 44.7922 42.2894C44.8693 41.7502 45.2816 41.4014 45.7936 41.3787C46.2467 41.3606 46.659 41.6641 46.7858 42.1127C46.813 42.2033 46.8175 42.2985 46.8311 42.38L46.8266 42.3891Z" fill="#722ED1"/>
<path id="Vector_18" d="M22.26 45.9593C22.2101 44.8583 22.1512 43.7528 22.1059 42.6518C22.0787 41.9495 22.3868 41.5191 22.9622 41.4103C23.4516 41.3197 23.9137 41.5825 24.0814 42.0537C24.1403 42.2168 24.1584 42.3845 24.1675 42.5521C24.3396 46.0953 24.5118 49.6384 24.684 53.1771C24.693 53.3855 24.7248 53.5939 24.7157 53.7978C24.6976 54.337 24.3034 54.7583 23.7914 54.8036C23.2477 54.8535 22.7855 54.5227 22.6859 53.97C22.559 53.2541 22.5681 52.5246 22.5318 51.7997C22.4321 49.8514 22.346 47.8986 22.2554 45.9503L22.26 45.9593Z" fill="#722ED1"/>
<path id="Vector_19" d="M35.8256 45.9238C35.6987 48.5155 35.5718 51.1071 35.4404 53.6943C35.4042 54.4237 34.8786 54.9086 34.2398 54.8179C33.7096 54.7409 33.3245 54.2652 33.3517 53.6852C33.4061 52.4981 33.4831 51.311 33.542 50.1239C33.6326 48.2572 33.7142 46.395 33.8048 44.5283C33.841 43.8215 33.8728 43.1146 33.9317 42.4123C33.986 41.7871 34.421 41.3838 34.9738 41.402C35.5628 41.4201 35.9751 41.8324 35.9706 42.4758C35.9706 43.2279 35.9162 43.9846 35.8799 44.7367C35.8618 45.1309 35.8392 45.5296 35.8165 45.9238H35.8256Z" fill="#722ED1"/>
</g>
<defs>
<clipPath id="clip0_1166_25679">
<rect width="58" height="58" fill="white" transform="translate(0.0405273 0.981445)"/>
</clipPath>
</defs>
</svg>
