<svg width="59" height="60" viewBox="0 0 59 60" fill="none" xmlns="http://www.w3.org/2000/svg">
<g id="Group">
<path id="Vector" d="M3.26027 22.3471C3.26027 16.0736 3.26027 9.80013 3.26027 3.52665C3.26027 3.17585 3.26485 2.82277 3.31062 2.47652C3.43878 1.48105 4.19172 1.00724 5.01331 0.982183C5.88983 0.954848 6.67252 1.69063 6.68625 2.56536C6.71372 4.33988 6.69541 6.11441 6.69769 7.88893C6.69769 11.8845 6.70227 15.88 6.70456 19.8755C6.70456 20.4678 6.70456 20.4655 7.2973 20.4655C9.74835 20.4655 12.1994 20.4655 14.6482 20.4655C15.0258 20.4655 15.0258 20.4587 15.0258 20.0942C15.0258 17.5793 15.0258 15.0645 15.0235 12.5496C15.0235 11.9596 15.0624 11.3765 15.2272 10.8047C15.7558 8.96184 17.3899 7.67708 19.3489 7.58368C19.5846 7.57229 19.6258 7.4994 19.6258 7.28755C19.6258 6.81374 19.5732 6.33765 19.6647 5.86839C19.8249 5.04377 20.5801 4.42417 21.388 4.44695C22.205 4.46973 22.8939 5.12578 23.0037 5.98001C23.0609 6.42421 23.0381 6.87069 23.0266 7.31716C23.022 7.51307 23.0609 7.57457 23.2669 7.58596C24.6927 7.6543 25.8507 8.24429 26.7112 9.38782C27.3429 10.2238 27.6106 11.1783 27.6129 12.2102C27.6175 14.4312 27.6129 16.6522 27.6129 18.8732C27.6129 19.3379 27.6243 19.8026 27.6175 20.2673C27.6152 20.429 27.6587 20.4814 27.8257 20.4792C28.8167 20.47 29.8099 20.4655 30.8009 20.4769C31.0275 20.4792 31.0641 20.3994 31.0641 20.199C31.0618 17.5315 31.0595 14.864 31.0686 12.1988C31.0755 10.2033 32.2541 8.5017 34.0712 7.84109C34.5129 7.67936 34.9752 7.60874 35.4421 7.58596C35.6137 7.57685 35.6687 7.53813 35.6618 7.35589C35.6481 6.93902 35.6366 6.51988 35.671 6.10529C35.7533 5.13717 36.5154 4.42872 37.4126 4.4515C38.3051 4.47428 39.0191 5.22828 39.058 6.20325C39.0718 6.56316 39.074 6.92536 39.058 7.28527C39.0489 7.49257 39.0832 7.57457 39.3235 7.5928C41.3535 7.74542 42.7266 8.78189 43.4315 10.684C43.6214 11.1988 43.6512 11.7409 43.6512 12.2831C43.6512 14.9301 43.6558 17.5793 43.6443 20.2263C43.6443 20.4723 43.745 20.4769 43.9304 20.4769C46.5233 20.4746 49.1186 20.4746 51.7115 20.4814C51.9015 20.4814 51.9518 20.4336 51.9518 20.2423C51.9472 18.9985 51.9587 17.757 51.9655 16.5132C51.9678 16.1533 51.977 15.7934 52.1441 15.4586C52.4759 14.7888 53.2288 14.3948 53.9383 14.5246C54.6958 14.6658 55.3137 15.3219 55.3709 16.0622C55.3915 16.3265 55.3892 16.593 55.3892 16.8595C55.3892 24.8323 55.3892 32.8051 55.3892 40.778C55.3892 41.1106 55.3755 41.4431 55.3732 41.7734C55.3686 42.2632 55.3183 42.1949 55.7875 42.2085C56.2429 42.2199 56.7029 42.1607 57.156 42.2495C58.028 42.4204 58.6184 43.0787 58.6253 43.9626C58.6413 46.2223 58.6436 48.4797 58.6253 50.7395C58.6161 51.6939 57.8403 52.4229 56.8677 52.4548C56.458 52.4684 56.0484 52.4479 55.6387 52.4616C55.4785 52.4661 55.4465 52.4024 55.4098 52.2589C54.7187 49.5094 53.0824 47.523 50.4986 46.3362C49.1369 45.712 47.6951 45.5412 46.2006 45.6619C42.7037 45.9398 39.7011 48.4934 38.7559 51.8147C38.6339 52.2444 38.3425 52.4593 37.8817 52.4593C32.0756 52.4593 26.2672 52.457 20.4611 52.4661C20.1659 52.4661 20.0675 52.3773 19.9897 52.0971C19.0743 48.7941 16.9322 46.671 13.6092 45.8487C9.0595 44.7234 4.44575 47.5594 3.31977 52.0948C3.25112 52.375 3.155 52.4935 2.85519 52.4639C2.40206 52.4183 1.93977 52.5117 1.48663 52.4092C0.632994 52.2201 0.0562777 51.5618 0.0517006 50.6939C0.0379692 48.4456 0.0356806 46.1949 0.0517006 43.9466C0.0585663 42.9808 0.834384 42.2427 1.81847 42.2108C2.20981 42.1971 2.60116 42.1903 2.99022 42.2131C3.25798 42.229 3.31061 42.1265 3.29917 41.8873C3.19847 39.7438 3.26027 37.598 3.2534 35.4544C3.24196 31.0899 3.25111 26.723 3.25111 22.3585H3.25569L3.26027 22.3471ZM45.4111 37.0581C45.4454 37.1264 45.5187 37.1401 45.5782 37.156C46.505 37.4134 47.2236 38.229 47.1962 39.4955C47.1779 40.311 47.1985 41.1288 47.1893 41.9443C47.187 42.1379 47.2305 42.2017 47.4388 42.2017C48.8691 42.1926 50.2995 42.1926 51.7298 42.2017C51.9404 42.2017 51.9999 42.1539 51.9976 41.9352C51.9816 39.0604 51.9747 36.1834 51.9678 33.3086C51.961 30.263 51.9541 27.2151 51.9564 24.1694C51.9564 23.9553 51.9015 23.8824 51.6841 23.8984C51.4277 23.9166 51.1691 23.9006 50.9128 23.9006C36.4765 23.9006 22.0402 23.9006 7.60168 23.9006C7.32019 23.9006 6.94944 23.7776 6.77779 23.9621C6.61073 24.1398 6.70228 24.5043 6.70228 24.789C6.6977 30.493 6.69998 36.197 6.69083 41.901C6.69083 42.1402 6.76177 42.204 6.9975 42.2017C8.37979 42.1903 9.76208 42.1903 11.1444 42.2017C11.387 42.2017 11.4465 42.1493 11.419 41.9033C11.2428 40.3292 11.0849 38.7529 10.9224 37.1788C10.7164 35.1879 10.5127 33.197 10.3068 31.206C10.2564 30.7208 10.2129 30.2356 10.1649 29.7527C10.2473 29.8028 10.2862 29.8643 10.3136 29.9304C10.7096 30.8324 11.078 31.7505 11.5632 32.6092C13.1034 35.3337 15.4263 36.9442 18.5548 37.3497C19.6464 37.4909 20.7472 37.4863 21.8228 37.213C24.8712 36.4385 27.0453 34.6252 28.3269 31.7573C28.6107 31.124 28.9334 30.5067 29.2378 29.8825C29.2813 29.9896 29.2767 30.083 29.2653 30.1718C29.1211 31.5386 28.97 32.9054 28.8281 34.2744C28.565 36.8235 28.3132 39.3702 28.0432 41.9192C28.018 42.163 28.0844 42.204 28.3041 42.204C30.0868 42.1971 31.8696 42.1971 33.6524 42.204C33.8653 42.204 33.9248 42.1516 33.9202 41.9375C33.9065 41.0923 33.9065 40.2472 33.9156 39.4044C33.9271 38.3132 34.5061 37.5251 35.5359 37.172C35.6092 37.1469 35.7121 37.1606 35.7465 37.0604C35.7282 37.0467 35.7144 37.033 35.6984 37.0262C35.6549 37.008 35.6092 36.992 35.5634 36.9784C34.6434 36.6845 34.0667 36.09 33.9591 35.115C33.8584 34.197 33.8927 33.2744 33.9316 32.3564C33.9911 31.0078 35.1583 30.1696 36.3255 30.2356C37.2752 30.2903 38.2319 30.2493 39.1862 30.2493C41.0926 30.2493 43.0012 30.2447 44.9076 30.2493C46.1137 30.2538 47.0016 30.9555 47.1367 32.1423C47.258 33.2038 47.274 34.2881 47.1115 35.3496C46.9925 36.1287 46.473 36.6389 45.7407 36.9351C45.6331 36.9784 45.4866 36.926 45.4042 37.0626L45.4111 37.0581Z" fill="#722ED1"/>
<path id="Vector_2" d="M52.1695 54.1902C52.0894 56.9579 49.945 59.2928 46.9882 59.2563C44.1641 59.2199 41.8984 57.1492 41.9122 54.1264C41.9259 50.9236 44.4616 49.0511 47.0752 49.0488C50.3021 49.0488 52.1421 51.7254 52.1695 54.1902Z" fill="#722ED1"/>
<path id="Vector_3" d="M16.781 54.1541C16.765 56.8968 14.6915 59.2248 11.6363 59.2681C8.86026 59.3068 6.49846 56.9218 6.52364 54.129C6.54881 51.3978 8.76414 49.0401 11.6317 49.0538C14.822 49.0674 16.7695 51.5686 16.781 54.1564V54.1541Z" fill="#722ED1"/>
<path id="Vector_4" d="M19.6988 34.0084C17.2546 33.8284 15.3917 32.7646 14.3481 30.4753C13.9041 29.5026 13.4784 28.5185 13.0345 27.5435C12.9406 27.3363 13.0024 27.3066 13.1992 27.3066C17.5063 27.3112 21.8134 27.3112 26.1228 27.3158C26.624 27.3158 26.6217 27.3203 26.3928 27.7896C25.8482 28.9058 25.3561 30.0493 24.7542 31.1336C23.8434 32.7692 22.3535 33.6166 20.5364 33.9355C20.2641 33.9833 19.9894 34.0152 19.7011 34.0084H19.6988Z" fill="#722ED1"/>
</g>
</svg>
