<svg width="51" height="60" viewBox="0 0 51 60" fill="none" xmlns="http://www.w3.org/2000/svg">
<g id="Layer_1" clip-path="url(#clip0_1166_24631)">
<path id="Vector" d="M25.0135 47.333C17.1573 47.333 9.29656 47.333 1.44032 47.3421C1.12176 47.3421 0.960238 47.2562 0.852557 46.9399C0.0987882 44.7346 -0.152468 42.4842 0.188523 40.1704C0.457726 38.3493 0.888451 36.5778 1.66465 34.9103C2.56648 32.9717 3.78238 31.2409 5.24057 29.6818C5.41555 29.492 5.56361 29.4514 5.80141 29.5689C9.03633 31.1731 12.4507 32.2125 15.9863 32.8406C20.4102 33.6269 24.8655 33.8122 29.3432 33.4642C33.9242 33.1072 38.3615 32.1221 42.6194 30.3461C43.2117 30.1021 43.7905 29.8264 44.3693 29.5553C44.5308 29.4785 44.634 29.492 44.7641 29.6231C47.5683 32.5333 49.2912 35.9768 49.8745 40.0123C50.2154 42.3531 50.018 44.6216 49.2732 46.8585C49.1117 47.3375 49.1162 47.3376 48.6137 47.3376C40.744 47.3376 32.8743 47.3376 25.0091 47.3376L25.0135 47.333ZM25.0629 41.011C22.9811 41.011 20.8992 41.011 18.8129 41.011C18.4091 41.011 18.095 41.1691 17.8886 41.5171C17.6733 41.8786 17.6822 42.2537 17.8841 42.6107C18.113 43.0174 18.4854 43.1304 18.9295 43.1304C23.0304 43.1213 27.1313 43.1258 31.2276 43.1213C31.3443 43.1213 31.4699 43.1213 31.5821 43.0897C32.1205 42.9451 32.4121 42.4706 32.3359 41.8741C32.2731 41.3815 31.8378 41.011 31.3039 41.011C29.2221 41.011 27.1402 41.011 25.0539 41.011H25.0629Z" fill="#722ED1"/>
<path id="Vector_2" d="M37.8906 55.743C38.2091 55.8922 38.4739 55.9554 38.6937 56.1136C39.3757 56.6107 39.7032 57.293 39.5955 58.1291C39.4744 59.078 38.9046 59.661 37.9938 59.905C37.7739 59.9638 37.5451 59.9818 37.3163 59.9818C29.1325 59.9818 20.9487 59.9818 12.765 59.9818C11.8228 59.9818 11.06 59.6429 10.6607 58.7301C10.1627 57.5913 10.6876 56.3666 11.8452 55.9057C11.9439 55.865 12.0426 55.8334 12.2266 55.7656C11.6702 55.6707 11.1991 55.6029 10.728 55.5035C7.80714 54.8799 5.29906 53.5287 3.32042 51.2331C2.89867 50.745 2.5487 50.2027 2.17631 49.674C2.06862 49.5204 2.08208 49.4345 2.29296 49.4435C2.35577 49.4435 2.42308 49.4435 2.49038 49.4435C17.5343 49.4435 32.5783 49.4435 47.6178 49.4435C47.6716 49.4435 47.7255 49.439 47.7793 49.4435C47.8511 49.4526 47.9453 49.3984 47.9812 49.4887C48.0126 49.5701 47.9364 49.6288 47.896 49.6921C46.2404 52.277 43.9297 54.0077 41.0806 55.029C40.0756 55.3905 39.0347 55.5939 37.8861 55.7385L37.8906 55.743Z" fill="#722ED1"/>
<path id="Vector_3" d="M42.799 27.9328C42.0901 28.2266 41.4575 28.5022 40.8114 28.7508C37.4464 30.0342 33.9647 30.8024 30.3978 31.2182C27.1045 31.6023 23.8113 31.652 20.5225 31.3221C16.112 30.8792 11.8183 29.9076 7.73534 28.1091C7.68599 28.0865 7.63663 28.0639 7.58728 28.0458C7.37192 27.9645 7.3764 27.8877 7.56485 27.7521C9.99665 25.9987 12.6842 24.9096 15.6499 24.5481C17.7497 24.2951 19.0643 23.1427 19.5848 21.0595C19.8899 19.8484 20.177 18.6328 20.4911 17.4262C20.7648 16.3642 21.4512 15.7632 22.5415 15.7406C24.224 15.7044 25.9066 15.7044 27.5891 15.7361C28.5986 15.7542 29.3344 16.3778 29.6036 17.3945C29.9267 18.6011 30.2093 19.8167 30.5099 21.0278C31.0304 23.1292 32.3719 24.2951 34.4896 24.5526C37.3297 24.9006 39.9231 25.9174 42.2741 27.5668C42.4222 27.6707 42.5747 27.7792 42.799 27.9419V27.9328Z" fill="#722ED1"/>
<path id="Vector_4" d="M24.0086 6.20093C24.0086 4.90398 24.0086 3.61155 24.0086 2.31459C24.0086 2.11576 24.0266 1.92144 24.0849 1.73164C24.2105 1.30686 24.6368 0.976972 25.0495 0.981491C25.4758 0.98601 25.8931 1.30686 26.0187 1.73164C26.068 1.89885 26.0905 2.07057 26.0905 2.25133C26.0905 4.9085 26.0905 7.56115 26.0905 10.2183C26.0905 10.4849 26.0501 10.7425 25.9155 10.9775C25.6867 11.3661 25.2156 11.5559 24.7938 11.4384C24.3227 11.3074 24.0131 10.8826 24.0086 10.3132C23.9997 8.93944 24.0086 7.57019 24.0086 6.19641V6.20093Z" fill="#722ED1"/>
<path id="Vector_5" d="M32.6231 3.06505C32.6455 4.46594 32.3853 5.8352 32.1924 7.21349C32.0443 8.25738 32.0084 9.3103 32.0129 10.3632C32.0129 10.9326 31.7527 11.2987 31.2816 11.4388C30.6624 11.6195 30.0388 11.2218 29.9804 10.5711C29.9086 9.77124 29.9759 8.97138 30.0298 8.17152C30.124 6.76159 30.4695 5.37878 30.5413 3.96433C30.5727 3.37235 30.5682 2.78036 30.5906 2.18837C30.6175 1.52408 30.9226 1.12189 31.4655 1.00891C31.968 0.904974 32.5109 1.27101 32.6096 1.78618C32.6904 2.21096 32.6186 2.64027 32.6231 3.06505Z" fill="#722ED1"/>
<path id="Vector_6" d="M20.1499 9.40522C20.1499 9.72155 20.1499 10.0424 20.1499 10.3587C20.1454 10.9869 19.7282 11.4568 19.1539 11.4885C18.611 11.5201 18.1264 11.0456 18.086 10.422C18.0456 9.76674 18.0726 9.10697 18.0322 8.4472C17.9604 7.27226 17.7181 6.12443 17.588 4.95853C17.4758 3.98695 17.4579 3.01085 17.4668 2.03474C17.4713 1.43824 17.8796 1.02249 18.4225 0.981819C18.925 0.945667 19.3692 1.3343 19.4724 1.90821C19.4904 2.00311 19.5038 2.10253 19.4993 2.20195C19.4545 3.78811 19.6833 5.35169 19.9211 6.91074C20.0467 7.73772 20.114 8.56469 20.1499 9.40071V9.40522Z" fill="#722ED1"/>
</g>
<defs>
<clipPath id="clip0_1166_24631">
<rect width="50" height="59" fill="white" transform="translate(0.0405273 0.981445)"/>
</clipPath>
</defs>
</svg>
