<svg width="53" height="60" viewBox="0 0 53 60" fill="none" xmlns="http://www.w3.org/2000/svg">
<g id="Layer_1" clip-path="url(#clip0_1166_30137)">
<path id="Vector" d="M26.0232 59.9713H0.428258C0.000846855 59.9713 0.0207265 59.9713 0.0604856 59.5607C0.140004 58.7199 0.189703 57.8743 0.254311 57.0335C0.438198 54.6041 0.671783 52.1747 1.13398 49.7795C1.44212 48.1762 1.82977 46.5924 2.58519 45.1211C3.03745 44.2461 3.69348 43.6204 4.63776 43.2587C8.41985 41.7971 12.187 40.3062 15.9691 38.8398C16.491 38.6345 16.9233 38.3216 17.3209 37.955C17.9919 37.3391 18.7274 36.7965 19.4431 36.2295C20.3029 35.5501 21.2124 35.5892 22.0374 36.3322C23.1755 37.3587 24.249 38.4487 25.3274 39.529C25.5511 39.7539 25.7697 40.1205 26.0232 40.1498C26.2866 40.1791 26.4904 39.7734 26.719 39.5535C27.7676 38.5367 28.8064 37.5053 29.86 36.4886C30.839 35.5403 31.8181 35.5061 32.8668 36.381C33.5973 36.9872 34.3229 37.6031 35.0386 38.2239C35.3119 38.4585 35.6201 38.6394 35.958 38.7713C39.7501 40.2525 43.5371 41.7482 47.3391 43.2147C48.3182 43.5911 48.9841 44.251 49.4513 45.1406C50.1819 46.5142 50.5596 48.0002 50.8627 49.5106C51.3349 51.8569 51.5983 54.2326 51.7573 56.618C51.8269 57.6592 51.9362 58.7003 52.0307 59.7415C52.0456 59.9028 52.0307 60.0055 51.8269 59.9762C51.7325 59.9615 51.6331 59.9762 51.5337 59.9762C43.0302 59.9762 34.5267 59.9762 26.0232 59.9762V59.9713Z" fill="#722ED1"/>
<path id="Vector_2" d="M36.3009 28.3702C35.3318 30.4428 34.129 32.3296 32.1411 33.6103C30.7942 34.4804 29.3033 34.9399 27.7129 35.1403C26.6991 35.2674 25.6852 35.3114 24.6763 35.1549C23.2201 34.9252 21.8534 34.4413 20.596 33.664C18.1657 32.1683 16.5108 30.0566 15.4273 27.4756C14.9552 26.3465 14.5874 25.188 14.3389 23.9904C14.2992 23.7949 14.2147 23.7753 14.0507 23.7802C13.3947 23.7851 12.7436 23.79 12.0876 23.7802C10.5668 23.7704 9.38892 22.6022 9.38892 21.1015C9.38892 19.3075 9.38892 17.5087 9.38892 15.7148C9.38892 14.8691 9.68214 14.1554 10.373 13.6324C10.5618 13.4906 10.6314 13.3049 10.6612 13.0898C11.2228 9.41881 13.1014 6.52502 16.0585 4.27647C18.4938 2.43853 21.257 1.39247 24.3085 1.07474C28.1006 0.683683 31.6193 1.5 34.8547 3.46504C37.3595 4.98526 39.1983 7.09694 40.416 9.72188C40.903 10.7728 41.2211 11.8824 41.3851 13.0263C41.4249 13.3 41.5292 13.5004 41.7429 13.6862C42.3691 14.2288 42.6773 14.918 42.6773 15.7441C42.6773 17.4989 42.6822 19.2587 42.6773 21.0135C42.6723 22.0791 42.23 22.9248 41.2658 23.4625C40.8732 23.6824 40.4458 23.7704 40.0035 23.7753C39.3375 23.7802 38.6765 23.7802 38.0105 23.7753C37.8465 23.7753 37.7521 23.8242 37.6676 23.966C35.9282 26.7913 33.3488 28.3409 30.0587 28.7954C29.9643 28.8101 29.8649 28.8248 29.7705 28.8394C29.5468 28.8785 29.3679 28.8492 29.1989 28.6586C29.0051 28.4337 28.7218 28.3066 28.4236 28.2871C27.7129 28.2382 26.9973 28.2089 26.2915 28.3262C25.4864 28.4582 24.9497 29.1621 25.0143 29.9393C25.0838 30.8045 25.715 31.4204 26.5649 31.4399C27.0917 31.4497 27.6185 31.4497 28.1453 31.4497C28.6075 31.4497 29.0051 31.2933 29.3132 30.9462C29.4325 30.8143 29.5617 30.7556 29.7406 30.7409C31.5845 30.5747 33.3438 30.1104 34.969 29.2061C35.4312 28.947 35.8834 28.6732 36.3208 28.3653L36.3009 28.3702ZM13.5537 13.08C13.5338 13.1974 13.5934 13.2609 13.6928 13.3049C13.8618 13.3782 14.0308 13.4564 14.17 13.5835C14.3389 13.7399 14.3936 13.6715 14.4582 13.4906C15.5218 10.4893 17.5793 8.41185 20.5662 7.25825C23.8115 6.00688 27.1265 5.96289 30.4662 6.89164C32.9711 7.59064 34.9888 8.9691 36.4251 11.1248C36.9172 11.858 37.3098 12.6352 37.5881 13.4711C37.6477 13.652 37.7024 13.7204 37.9012 13.5884C38.5423 13.168 38.5473 13.1778 38.3535 12.4397C38.3336 12.3664 38.3137 12.293 38.2938 12.2197C37.3645 9.15485 35.3616 6.94052 32.5635 5.42519C29.3381 3.68012 25.884 3.37705 22.3554 4.30092C18.6379 5.27366 15.8895 7.47333 14.2395 10.9293C13.9115 11.6185 13.7127 12.3468 13.5537 13.0898V13.08Z" fill="#722ED1"/>
</g>
<defs>
<clipPath id="clip0_1166_30137">
<rect width="52" height="59" fill="white" transform="translate(0.0405273 0.981445)"/>
</clipPath>
</defs>
</svg>
