<svg width="55" height="55" viewBox="0 0 55 55" fill="none" xmlns="http://www.w3.org/2000/svg">
<g id="Layer_1" clip-path="url(#clip0_1166_30022)">
<path id="Vector" d="M15.1988 51.441C12.4859 51.441 9.7775 51.441 7.06462 51.441C6.73162 51.441 6.73606 51.441 6.84262 51.1135C6.9625 50.7462 7.09126 50.3832 7.18894 50.007C7.36654 49.3476 7.21114 48.9094 6.66501 48.5111C6.18993 48.1659 5.69708 47.8339 5.25308 47.4445C2.90872 45.3864 1.54563 42.8017 1.07498 39.7169C0.759737 37.6412 0.955099 35.6363 1.71879 33.6933C2.38924 31.9938 3.44597 30.5332 4.60483 29.1391C5.9102 27.5679 7.41538 26.1915 8.814 24.7132C9.49777 23.9918 10.1327 23.2261 10.6744 22.3808C11.6112 20.9203 11.9842 19.3092 11.9886 17.6009C11.9975 15.6845 11.9886 13.7636 11.9931 11.8472C11.9931 11.1391 11.7222 10.5991 11.1184 10.2318C10.9763 10.1477 10.8298 10.0725 10.6833 9.98836C10.4923 9.87772 10.2925 9.77592 10.1149 9.652C9.10705 8.93943 9.13813 8.11622 9.8885 7.14696C10.1149 6.85485 10.4479 6.73535 10.8165 6.73535C13.9689 6.73535 17.1214 6.73535 20.2782 6.73535C20.9576 6.73535 21.4859 7.27973 21.6724 8.08082C21.8101 8.68273 21.5659 9.12089 21.1485 9.50152C20.8599 9.76707 20.5047 9.93083 20.1628 10.1079C19.408 10.5018 19.0617 11.1125 19.0661 11.9667C19.0794 14.0513 19.0972 16.1359 19.0661 18.216C19.035 20.1324 19.6699 21.7877 20.8599 23.2571C21.6058 24.1777 22.4983 24.9522 23.3685 25.7489C23.8569 26.1959 24.3231 26.6695 24.8071 27.1253C24.9225 27.2315 24.927 27.2846 24.8071 27.3997C24.6251 27.5679 24.4652 27.7626 24.3142 27.9574C24.2077 28.0946 24.1455 28.099 24.0212 27.9751C23.1776 27.1386 22.3207 26.311 21.4771 25.4745C21.3616 25.3594 21.2506 25.3151 21.0908 25.3151C17.3922 25.3151 13.6981 25.3196 9.9995 25.3151C9.78194 25.3151 9.67537 25.4258 9.54217 25.5586C8.70744 26.4039 7.86827 27.2492 7.06462 28.1256C5.85692 29.4356 4.71583 30.7944 3.80562 32.339C2.65564 34.2952 2.12727 36.3798 2.29156 38.6547C2.44252 40.7614 3.11297 42.6645 4.29846 44.395C5.82584 46.6213 7.96151 47.8826 10.6033 48.3429C13.2985 48.8121 16.0069 48.8962 18.7287 48.6085C20.1495 48.458 21.557 48.2057 22.8757 47.6215C23.04 47.5507 23.0577 47.5994 23.0622 47.7454C23.071 48.3164 23.0488 48.8873 23.1021 49.4582C23.1598 50.0734 23.3286 50.6532 23.5861 51.2065C23.6749 51.4012 23.6749 51.4676 23.444 51.4454C23.3596 51.4366 23.2797 51.4454 23.1954 51.4454C20.5313 51.4454 17.8673 51.4454 15.2032 51.4454L15.1988 51.441Z" fill="#722ED1"/>
<path id="Vector_2" d="M41.604 45.6867C41.4442 45.6867 41.3376 45.6867 41.231 45.6867C35.5788 45.6867 29.9267 45.6867 24.2745 45.6955C23.9859 45.6955 23.937 45.6114 23.937 45.3459C23.9459 41.5751 23.9459 37.8042 23.937 34.0334C23.937 33.7855 23.9992 33.7324 24.2389 33.7324C30.5349 33.7413 36.8354 33.7413 43.1314 33.7324C43.3578 33.7324 43.42 33.7855 43.42 34.0157C43.4111 36.7553 43.4156 39.4905 43.4156 42.2301C43.4156 42.5532 43.4156 42.5576 43.1136 42.4647C42.5764 42.2965 42.0214 42.1991 41.4619 42.1504C40.8803 42.0973 40.7249 42.2566 40.7693 42.8364C40.8092 43.3233 40.8936 43.8013 41.0224 44.2748C41.1511 44.7484 41.342 45.1954 41.604 45.6823V45.6867ZM36.347 41.0971C36.347 40.7917 36.2848 40.3845 36.1694 39.9817C35.7032 38.3398 34.8107 36.9279 33.7895 35.5913C33.6785 35.4497 33.6297 35.547 33.5675 35.6267C33.3233 35.9631 33.0658 36.2861 32.8393 36.6314C31.9913 37.9149 31.2587 39.2471 31.0633 40.8094C30.8369 42.6151 32.0268 43.9783 33.7673 43.9252C35.3435 43.8765 36.4003 42.7877 36.3514 41.0926L36.347 41.0971Z" fill="#722ED1"/>
<path id="Vector_3" d="M27.0361 54.9812C18.2981 54.9812 9.55557 54.9812 0.817538 54.9812C0.182609 54.9812 0.0405273 54.8351 0.0405273 54.2022C0.0405273 53.7862 0.0405273 53.3746 0.0405273 52.9586C0.0449674 52.5248 0.23589 52.3389 0.666576 52.3301C0.742057 52.3301 0.813098 52.3301 0.888579 52.3301C18.3114 52.3301 35.7342 52.3301 53.157 52.3301C53.2413 52.3301 53.3212 52.3301 53.4056 52.3301C53.8674 52.3434 54.0316 52.5115 54.0316 52.9763C54.0316 53.4543 54.0316 53.9367 54.0316 54.4147C54.0316 54.7953 53.8452 54.9723 53.4722 54.9856C53.3878 54.9856 53.3079 54.9856 53.2236 54.9856C44.4944 54.9856 35.7652 54.9856 27.0316 54.9856L27.0361 54.9812Z" fill="#722ED1"/>
<path id="Vector_4" d="M40.2409 46.6431C39.8946 46.8821 39.5527 47.1343 39.2552 47.4353C38.8733 47.8204 38.8733 48.0062 39.2641 48.378C39.8901 48.9711 40.5783 49.4756 41.3775 49.812C41.5285 49.874 41.5463 49.9359 41.4708 50.0731C41.2843 50.4228 41.1156 50.7813 41.0312 51.1707C40.9824 51.392 40.8714 51.4496 40.6494 51.4451C37.2572 51.4363 33.865 51.4407 30.4728 51.4407C28.6656 51.4407 26.8585 51.4407 25.0514 51.4451C24.8383 51.4451 24.714 51.3788 24.6119 51.1973C24.159 50.4006 23.9592 49.542 23.9414 48.6347C23.9281 48.0372 23.9503 47.4353 23.9325 46.8378C23.9237 46.6077 24.0036 46.5723 24.2123 46.5723C28.7544 46.5767 33.3011 46.5723 37.8433 46.5723C38.5537 46.5723 39.2641 46.5723 39.9745 46.5723C40.0544 46.5723 40.1343 46.5723 40.2142 46.5723C40.2231 46.5944 40.232 46.6165 40.2364 46.6431H40.2409Z" fill="#722ED1"/>
<path id="Vector_5" d="M33.6784 23.558C32.2887 23.558 30.8945 23.558 29.5047 23.558C28.519 23.558 27.9241 22.9605 27.9241 21.9691C27.9241 20.9821 27.9241 19.9952 27.9241 19.0126C27.9241 17.946 28.4968 17.3662 29.558 17.3662C32.3153 17.3662 35.0681 17.3662 37.8254 17.3662C38.8511 17.3662 39.4283 17.9504 39.4327 18.9861C39.4327 19.9996 39.4327 21.0131 39.4327 22.0266C39.4327 22.9472 38.8289 23.558 37.9098 23.5624C36.4978 23.5668 35.0903 23.5624 33.6784 23.5624V23.558Z" fill="#722ED1"/>
<path id="Vector_6" d="M31.9068 28.643C31.9068 29.9619 31.9024 31.2764 31.9113 32.5953C31.9113 32.7989 31.8669 32.8564 31.6537 32.8564C29.1673 32.8475 26.6809 32.8475 24.19 32.8564C23.9813 32.8564 23.9369 32.7989 23.9325 32.5953C23.897 31.4667 24.0568 30.3779 24.5408 29.3467C25.0381 28.2889 25.8373 27.5232 26.854 26.9833C27.4401 26.6735 28.0617 26.4433 28.7055 26.2796C29.4781 26.0848 29.6868 25.8016 29.6912 25.0138C29.6912 24.6331 29.8822 24.4428 30.264 24.4428C30.708 24.4428 31.1476 24.4561 31.5916 24.4384C31.8313 24.4295 31.9157 24.4827 31.9157 24.7482C31.9024 26.045 31.9068 27.3462 31.9068 28.643Z" fill="#722ED1"/>
<path id="Vector_7" d="M35.45 28.6432C35.45 27.3243 35.45 26.0099 35.45 24.6909C35.45 24.5051 35.4855 24.4342 35.6897 24.4387C36.2802 24.4519 36.8708 24.4519 37.4569 24.4387C37.6345 24.4387 37.6789 24.4918 37.67 24.66C37.6567 24.8326 37.6611 25.0096 37.67 25.1866C37.6877 25.7266 37.9364 26.0718 38.4559 26.2179C39.1663 26.417 39.8634 26.6428 40.5161 26.9968C42.0745 27.8466 42.9892 29.1566 43.3133 30.8916C43.4199 31.4758 43.4287 32.0644 43.4243 32.6531C43.4243 32.8036 43.3888 32.8611 43.2245 32.8611C40.6981 32.8567 38.1761 32.8567 35.6498 32.8611C35.4544 32.8611 35.45 32.7726 35.45 32.6265C35.45 31.2988 35.45 29.971 35.45 28.6477V28.6432Z" fill="#722ED1"/>
<path id="Vector_8" d="M37.0706 16.4587H30.304C30.304 16.3392 30.4061 16.2905 30.4638 16.2197C30.9211 15.6842 31.334 15.1221 31.4317 14.3918C31.4495 14.2458 31.4628 14.0997 31.4628 13.9537C31.4628 12.1833 31.4628 10.413 31.4628 8.64706C31.4628 7.4742 32.2221 6.54477 33.3099 6.35446C34.4732 6.15087 35.6054 6.93424 35.8318 8.10267C35.8718 8.30184 35.8895 8.501 35.8895 8.70459C35.8895 10.3466 35.9073 11.9842 35.8807 13.6262C35.8629 14.653 36.2492 15.485 36.9152 16.2241C36.9729 16.2905 37.0573 16.3392 37.0706 16.4587Z" fill="#722ED1"/>
<path id="Vector_9" d="M15.5585 5.85385C14.4618 5.85385 13.3651 5.85385 12.2684 5.85385C12.0908 5.85385 12.0109 5.82287 11.9976 5.62371C11.931 4.66772 11.7534 3.72501 11.6424 2.77345C11.629 2.6628 11.6113 2.55658 11.6024 2.44594C11.5447 1.4988 11.9887 0.994251 12.9388 0.989825C14.6794 0.976548 16.4243 0.980973 18.1648 0.989825C19.0928 0.994251 19.5767 1.55191 19.4702 2.46806C19.3547 3.44618 19.2171 4.4243 19.0883 5.39799C19.0262 5.85385 19.0262 5.85385 18.5733 5.85385C17.5698 5.85385 16.5619 5.85385 15.5585 5.85385Z" fill="#722ED1"/>
<path id="Vector_10" d="M18.4134 34.6227C17.6542 34.5741 16.8283 34.5386 16.0424 34.2156C15.2299 33.8792 14.7149 33.2684 14.3952 32.4806C13.889 31.2325 13.7691 29.9136 13.7603 28.577C13.7603 28.4796 13.778 28.4177 13.8935 28.4221C15.1234 28.4841 16.3666 28.6036 17.4411 29.2453C19.3281 30.3739 19.9142 31.9761 19.297 34.0562C19.0883 34.7644 19.186 34.6006 18.4134 34.6227Z" fill="#722ED1"/>
<path id="Vector_11" d="M11.9931 36.7385C11.9088 37.8627 11.7933 38.8895 11.4292 39.8808C10.9319 41.2263 9.90629 41.8548 8.54763 42.0318C7.99262 42.1071 7.43317 42.1602 6.86929 42.1469C6.7494 42.1469 6.6606 42.1336 6.61176 42.0008C6.1278 40.6996 6.03011 39.4161 6.7938 38.1813C7.41097 37.1855 8.36559 36.6588 9.44452 36.318C10.1949 36.079 10.9763 36.0082 11.7578 35.9463C11.9487 35.933 12.0198 35.9861 12.0064 36.1853C11.9887 36.3977 12.0064 36.6101 12.0064 36.7341L11.9931 36.7385Z" fill="#722ED1"/>
<path id="Vector_12" d="M20.8422 43.3899C20.82 44.0936 20.7223 44.784 20.4737 45.4435C20.4248 45.5718 20.3804 45.6913 20.2117 45.6736C19.6078 45.6117 19.004 45.5718 18.4401 45.2974C17.1436 44.669 16.5264 43.6068 16.4154 42.2082C16.3488 41.3451 16.5398 40.5263 16.8062 39.7164C16.8461 39.6013 16.8772 39.4818 17.037 39.4907C18.0671 39.5482 19.0528 39.7474 19.8165 40.5219C20.3982 41.1106 20.669 41.8453 20.78 42.6463C20.8155 42.8942 20.8599 43.1376 20.8377 43.3899H20.8422Z" fill="#722ED1"/>
<path id="Vector_13" d="M34.5619 28.6474C34.5619 29.9663 34.5574 31.2808 34.5663 32.5997C34.5663 32.8077 34.513 32.8652 34.3043 32.8564C33.8914 32.8387 33.4741 32.8387 33.0611 32.8564C32.848 32.8652 32.7814 32.8121 32.7859 32.5864C32.7947 30.7806 32.7903 28.9749 32.7903 27.1691C32.7903 26.3415 32.7947 25.5094 32.7859 24.6818C32.7859 24.487 32.8391 24.4295 33.0301 24.4384C33.443 24.4516 33.8603 24.4561 34.2733 24.4384C34.4997 24.4295 34.5663 24.487 34.5663 24.7216C34.553 26.0317 34.5619 27.3373 34.5619 28.6474Z" fill="#722ED1"/>
<path id="Vector_14" d="M46.661 46.5718C46.5722 46.5718 46.5101 46.5585 46.4612 46.5718C46.0572 46.6957 45.8974 46.4479 45.7286 46.1469C44.885 44.6643 45.1026 43.2878 46.1149 41.9866C46.5722 41.4024 46.4435 41.3493 46.9319 41.9866C47.3981 42.593 47.7311 43.2657 47.811 44.0402C47.9043 44.9608 47.5801 45.7575 47.0873 46.5054C46.963 46.6957 46.7809 46.5453 46.661 46.5718Z" fill="#722ED1"/>
<path id="Vector_15" d="M42.998 49.2327C41.8525 49.1973 40.9867 48.7104 40.2096 48.02C40.1075 47.9271 40.1253 47.8651 40.2274 47.781C41.0089 47.1304 41.8658 46.648 42.9048 46.5949C43.6463 46.5595 44.3123 46.8339 44.9339 47.2101C45.0493 47.2809 45.0493 47.3605 44.9871 47.4623C44.7873 47.7899 44.7207 48.1484 44.7474 48.5245C44.7607 48.6883 44.6985 48.7635 44.5431 48.8255C44.0192 49.038 43.4908 49.215 42.9936 49.2371L42.998 49.2327Z" fill="#722ED1"/>
<path id="Vector_16" d="M50.0755 46.5811C51.1544 46.6253 52.0602 47.0723 52.8416 47.8026C52.9304 47.8823 52.9038 47.9354 52.8283 48.0018C52.0646 48.6612 51.221 49.1481 50.1953 49.2144C49.556 49.2543 48.961 49.0418 48.3927 48.7763C48.2906 48.7276 48.2861 48.6347 48.2906 48.5417C48.3083 48.139 48.2639 47.7495 48.0375 47.4043C47.9753 47.3069 48.0242 47.2582 48.1041 47.2095C48.7124 46.8422 49.3651 46.612 50.0843 46.5855L50.0755 46.5811Z" fill="#722ED1"/>
<path id="Vector_17" d="M48.3928 46.019C48.6326 45.4215 48.748 44.8771 48.7258 44.3062C48.7214 44.1601 48.7747 44.0628 48.8945 43.9831C49.5739 43.5361 50.3154 43.2572 51.119 43.1333C51.2744 43.1112 51.3011 43.1732 51.2833 43.2971C51.159 44.1203 50.8837 44.8815 50.4086 45.5676C50.3642 45.6295 50.3154 45.6782 50.231 45.6871C49.6272 45.7269 49.0278 45.7844 48.3973 46.019H48.3928Z" fill="#722ED1"/>
<path id="Vector_18" d="M44.6454 46.0235C44.0327 45.7712 43.4777 45.6738 42.9005 45.6871C42.7673 45.6871 42.6829 45.6428 42.6075 45.5278C42.159 44.8595 41.8926 44.1203 41.7594 43.3325C41.7416 43.2219 41.6928 43.0803 41.9192 43.1245C42.6963 43.2662 43.4333 43.5051 44.0949 43.9477C44.1837 44.0097 44.3036 44.0584 44.2991 44.1912C44.2814 44.8019 44.3924 45.3906 44.6454 46.0235Z" fill="#722ED1"/>
<path id="Vector_19" d="M46.5057 51.4408C46.1372 51.4408 45.7686 51.4364 45.4045 51.4408C45.2403 51.4408 45.1692 51.4142 45.2047 51.2283C45.2847 50.8433 45.3557 50.4538 45.5022 50.0865C45.5644 49.936 45.6265 49.8873 45.7864 49.9537C46.2837 50.1617 46.7898 50.1529 47.2827 49.9404C47.3981 49.8917 47.4603 49.9006 47.5091 50.0289C47.6645 50.414 47.7578 50.8167 47.8333 51.2239C47.8643 51.3921 47.8111 51.4496 47.6335 51.4452C47.2561 51.4319 46.8786 51.4452 46.5012 51.4452L46.5057 51.4408Z" fill="#722ED1"/>
<path id="Vector_20" d="M48.406 49.7676C49.0853 50.0862 49.7203 50.1394 50.3685 50.1128C50.4751 50.1128 50.5417 50.1659 50.5905 50.2456C50.8036 50.5731 50.9546 50.9272 51.0922 51.2901C51.1322 51.3919 51.1011 51.4406 50.9812 51.4406C50.2708 51.4406 49.5604 51.4406 48.8545 51.4406C48.779 51.4406 48.7257 51.4228 48.7301 51.3343C48.7435 50.8209 48.6102 50.3341 48.406 49.7676Z" fill="#722ED1"/>
<path id="Vector_21" d="M44.6321 49.7812C44.4279 50.3256 44.3124 50.8036 44.3035 51.3037C44.3035 51.4188 44.2458 51.4409 44.1481 51.4409C43.4599 51.4409 42.7673 51.4409 42.0791 51.4409C41.9592 51.4409 41.9103 51.41 41.9592 51.2816C42.0924 50.9187 42.2522 50.5691 42.452 50.2371C42.5142 50.1353 42.5986 50.1088 42.7096 50.1132C43.3489 50.1397 43.975 50.0866 44.6321 49.7812Z" fill="#722ED1"/>
<path id="Vector_22" d="M47.3804 48.3693C47.3626 48.8296 46.9452 49.2368 46.4968 49.2279C46.0439 49.2191 45.631 48.7898 45.6487 48.3427C45.6665 47.8736 46.075 47.462 46.5146 47.4708C46.9896 47.4797 47.3981 47.9046 47.3804 48.3693ZM46.9541 48.3162C46.9541 48.0595 46.7854 47.9002 46.519 47.9002C46.2615 47.9002 46.0661 48.0993 46.0706 48.356C46.075 48.6083 46.2704 48.7853 46.5412 48.7853C46.8076 48.7853 46.9541 48.6216 46.9541 48.3162Z" fill="#722ED1"/>
</g>
<defs>
<clipPath id="clip0_1166_30022">
<rect width="54" height="54" fill="white" transform="translate(0.0405273 0.981445)"/>
</clipPath>
</defs>
</svg>
