<svg width="57" height="57" viewBox="0 0 57 57" fill="none" xmlns="http://www.w3.org/2000/svg">
<g id="flower-tulip" clip-path="url(#clip0_102_35826)">
<path id="Vector" d="M54.2763 35.9814H49.1073C42.2166 35.9814 36.002 38.4129 31.5406 42.3164V28.9814C35.2536 28.9814 38.8145 27.5065 41.44 24.8809C44.0656 22.2554 45.5406 18.6945 45.5406 14.9814V4.48145L36.7906 9.73145L28.1652 0.981445L19.2906 9.73145L10.5406 4.48145V14.9814C10.5406 18.6945 12.0155 22.2554 14.6411 24.8809C17.2666 27.5065 20.8275 28.9814 24.5406 28.9814V42.3164C20.0791 38.4129 13.8623 35.9814 6.97383 35.9814H1.80477C0.799614 35.9814 -0.0546045 36.8258 0.048208 37.8233C1.14086 48.5596 11.6813 56.9814 24.522 56.9814H31.5591C44.3998 56.9814 54.9402 48.5596 56.0329 37.8233C56.1335 36.8258 55.2815 35.9814 54.2763 35.9814Z" fill="#722ED1"/>
</g>
<defs>
<clipPath id="clip0_102_35826">
<rect width="56" height="56" fill="white" transform="translate(0.0405273 0.981445)"/>
</clipPath>
</defs>
</svg>
