<svg width="17" height="17" viewBox="0 0 17 17" fill="none" xmlns="http://www.w3.org/2000/svg">
<g id="arrow-right">
<path id="Vector" d="M8.2645 1.63964L8.04353 1.86057C7.89709 2.00701 7.89709 2.24445 8.04353 2.39092L13.6215 7.96886H1.875C1.66791 7.96886 1.5 8.13676 1.5 8.34386V8.65636C1.5 8.86345 1.66791 9.03136 1.875 9.03136H13.6215L8.04353 14.6093C7.89709 14.7557 7.89709 14.9932 8.04353 15.1396L8.2645 15.3606C8.41094 15.507 8.64838 15.507 8.79481 15.3606L15.3902 8.76526C15.5366 8.61882 15.5366 8.38139 15.3902 8.23492L8.79481 1.63964C8.64838 1.49317 8.41094 1.49317 8.2645 1.63964Z" fill="white"/>
</g>
</svg>
