<svg width="27" height="24" viewBox="0 0 27 24" fill="none" xmlns="http://www.w3.org/2000/svg">
<g id="google 2">
<path id="Vector" d="M25.0948 9.9819L14.8632 9.98145C14.4114 9.98145 14.0452 10.3203 14.0452 10.7384V13.7633C14.0452 14.1814 14.4114 14.5203 14.8631 14.5203H20.625C19.9941 16.0357 18.8165 17.3047 17.3141 18.111L19.7709 22.047C23.712 19.9376 26.042 16.2365 26.042 12.0934C26.042 11.5035 25.995 11.0818 25.901 10.6069C25.8296 10.2461 25.4911 9.9819 25.0948 9.9819Z" fill="#167EE6"/>
<path id="Vector_2" d="M13.4993 19.0654C10.6796 19.0654 8.218 17.6396 6.89593 15.5298L2.64307 17.7983C4.80732 21.2697 8.86167 23.6073 13.4993 23.6073C15.7744 23.6073 17.9211 23.0404 19.7704 22.0525V22.0471L17.3136 18.1111C16.1898 18.7143 14.8893 19.0654 13.4993 19.0654Z" fill="#12B347"/>
<path id="Vector_3" d="M19.7721 22.0527V22.0473L17.3152 18.1113C16.1914 18.7145 14.891 19.0656 13.501 19.0656V23.6075C15.7761 23.6075 17.9229 23.0406 19.7721 22.0527Z" fill="#0F993E"/>
<path id="Vector_4" d="M5.86581 12.0003C5.86581 10.7141 6.24511 9.51068 6.89677 8.47071L2.6439 6.20215C1.57052 7.90817 0.958008 9.88946 0.958008 12.0003C0.958008 14.1112 1.57052 16.0925 2.6439 17.7985L6.89677 15.5299C6.24511 14.49 5.86581 13.2866 5.86581 12.0003Z" fill="#FFD500"/>
<path id="Vector_5" d="M13.4993 4.935C15.3381 4.935 17.027 5.53965 18.3463 6.54544C18.6717 6.79354 19.1448 6.77563 19.4429 6.49974L21.7588 4.3565C22.097 4.04347 22.0729 3.53108 21.7116 3.24099C19.5013 1.46641 16.6254 0.393066 13.4993 0.393066C8.86167 0.393066 4.80732 2.73068 2.64307 6.20203L6.89593 8.47059C8.218 6.36077 10.6796 4.935 13.4993 4.935Z" fill="#FF4B26"/>
<path id="Vector_6" d="M18.3479 6.54544C18.6734 6.79354 19.1465 6.77563 19.4445 6.49974L21.7604 4.3565C22.0986 4.04347 22.0745 3.53108 21.7132 3.24099C19.5029 1.46636 16.6271 0.393066 13.501 0.393066V4.935C15.3397 4.935 17.0287 5.53966 18.3479 6.54544Z" fill="#D93F21"/>
</g>
</svg>
