<svg width="32" height="32" viewBox="0 0 32 32" fill="none" xmlns="http://www.w3.org/2000/svg">
<g id="facebook" clip-path="url(#clip0_99_19206)">
<path id="Vector" d="M31.5 16C31.5 23.7314 25.8417 30.1382 18.4375 31.3069V21.3875H22.2687H22.6851L22.7605 20.9781L23.6605 16.0905L23.7692 15.5H23.1688H18.4438V14.2625C18.4438 13.0185 18.6912 12.2934 19.1285 11.8637C19.5682 11.4318 20.3118 11.1875 21.5812 11.1875C22.3948 11.1875 23.0315 11.2125 23.3815 11.2475L23.9312 11.3025V10.75V6.325V5.94513L23.5653 5.8433C22.7901 5.62758 20.9922 5.425 19.95 5.425C17.2053 5.425 15.0959 6.07232 13.6802 7.51816C12.2667 8.96181 11.6375 11.1072 11.6375 13.8938V15.5H8.8375H8.3375V16V20.8875V21.3875H8.8375H11.6375V30.878C5.20221 28.9906 0.5 23.0403 0.5 16C0.5 7.43864 7.43864 0.5 16 0.5C24.5614 0.5 31.5 7.43864 31.5 16Z" fill="#C8CCD0" stroke="#C8CCD0"/>
</g>
<defs>
<clipPath id="clip0_99_19206">
<rect width="32" height="32" fill="white"/>
</clipPath>
</defs>
</svg>
