<svg width="24" height="24" viewBox="0 0 24 24" fill="none" xmlns="http://www.w3.org/2000/svg">
<g id="phone">
<path id="Vector" d="M21.9979 2.25519L17.6181 1.24447C17.1423 1.13498 16.6537 1.38345 16.46 1.82985L14.4386 6.54655C14.2617 6.95926 14.3796 7.44356 14.7292 7.72572L17.2812 9.81454C15.7652 13.0446 13.1162 15.7315 9.81875 17.277L7.72992 14.725C7.44355 14.3754 6.96346 14.2575 6.55075 14.4344L1.83404 16.4558C1.38343 16.6538 1.13496 17.1423 1.24446 17.6182L2.25518 21.9979C2.36046 22.4528 2.76475 22.7812 3.24063 22.7812C14.0259 22.7812 22.7812 14.0427 22.7812 3.24065C22.7812 2.76898 22.457 2.36048 21.9979 2.25519Z" fill="#C8CCD0"/>
</g>
</svg>
