<svg width="17" height="17" viewBox="0 0 17 17" fill="none" xmlns="http://www.w3.org/2000/svg">
<g id="arrow-right">
<path id="Vector" d="M8.31566 1.67235L7.69694 2.29107C7.5505 2.43751 7.5505 2.67495 7.69694 2.82141L12.5448 7.6692H1.875C1.66791 7.6692 1.5 7.8371 1.5 8.0442V8.9192C1.5 9.12629 1.66791 9.2942 1.875 9.2942H12.5448L7.69694 14.142C7.5505 14.2884 7.5505 14.5259 7.69694 14.6724L8.31566 15.2911C8.46209 15.4375 8.69953 15.4375 8.846 15.2911L15.3902 8.74688C15.5366 8.60044 15.5366 8.36301 15.3902 8.21654L8.84597 1.67235C8.69953 1.52588 8.46209 1.52588 8.31566 1.67235Z" fill="#020D17"/>
</g>
</svg>
