<svg width="70" height="71" viewBox="0 0 70 71" fill="none" xmlns="http://www.w3.org/2000/svg">
<g id="Group">
<path id="Vector" d="M26.1085 29.1377C25.5695 31.6185 24.2097 33.5633 22.7304 35.4407C20.9265 37.7316 18.9112 39.8388 17.0093 42.047C15.2482 44.0898 13.5943 46.2123 12.3968 48.6471C11.674 50.1141 11.3218 51.6577 11.3494 53.3147C11.3861 55.627 12.1273 57.6974 13.2728 59.6606C13.4106 59.8964 13.53 59.9791 13.7812 59.7831C14.1946 59.4646 14.6265 59.1705 15.0614 58.8827C15.2911 58.7295 15.3187 58.6101 15.1686 58.3528C14.1426 56.5887 13.4841 54.7113 13.6066 52.6347C13.6801 51.3729 14.1273 50.2183 14.7 49.1065C15.5882 47.3822 16.7826 45.8723 17.9801 44.3624C19.1777 42.8555 20.5314 41.4896 21.7993 40.0042C21.8146 40.1634 21.7197 40.2308 21.6646 40.3135C20.6416 41.8908 19.6677 43.4987 18.8009 45.1648C18.0261 46.6533 17.435 48.203 17.2696 49.8997C17.0858 51.7741 17.4411 53.5474 18.17 55.2595C18.3691 55.7281 18.6172 56.1752 18.8254 56.6408C18.9173 56.8429 19.0184 56.8582 19.1991 56.7541C19.6922 56.4723 20.1853 56.1905 20.6906 55.9302C20.9111 55.8169 20.9265 55.7097 20.8162 55.5014C20.3047 54.5367 19.9096 53.526 19.6524 52.4571C19.2603 50.8277 19.5605 49.2811 20.121 47.7559C20.7641 46.0009 21.7687 44.4359 22.7457 42.8586C23.9187 40.9658 25.1744 39.1252 26.2127 37.1497C26.6537 36.3075 27.0733 35.456 27.3734 34.5495C27.3918 34.4974 27.4041 34.4362 27.5204 34.4209C27.6399 35.2141 27.7624 36.0073 27.8757 36.8036C28.2432 39.4284 28.3811 42.0684 28.3811 44.7207C28.3811 47.566 27.5909 50.1754 26.1208 52.5765C23.7166 56.4999 20.467 59.5564 16.4273 61.7616C15.3983 62.3251 14.3416 62.8519 13.1564 62.9836C10.9175 63.2317 9.25756 62.2057 8.38776 60.5151C7.78747 59.3512 7.54551 58.0955 7.35563 56.8184C7.02486 54.5918 7.14736 52.4234 8.04167 50.3316C8.7369 48.7114 9.68328 47.2383 10.7613 45.8509C12.7644 43.2782 15.0461 40.9658 17.3982 38.7178C19.2267 36.969 21.0826 35.2447 22.7733 33.3581C23.9034 32.0993 25.055 30.8497 25.9156 29.3766C25.9554 29.3092 26.0136 29.2541 26.1024 29.1408L26.1085 29.1377Z" fill="#868E96"/>
<path id="Vector_2" d="M48.3283 40.0869C50.4998 42.4176 52.6498 44.7452 54.4047 47.3975C55.299 48.7482 56.0616 50.1601 56.3893 51.7711C56.7079 53.3239 56.4475 54.8185 55.933 56.2824C55.6665 57.0389 55.3296 57.7648 54.8947 58.4386C54.7845 58.607 54.812 58.6989 54.9621 58.8061C55.4644 59.1583 55.9667 59.5166 56.4628 59.878C56.6313 60.0006 56.6834 59.875 56.7538 59.7678C57.1979 59.1001 57.5501 58.3804 57.8625 57.6423C58.6956 55.6821 58.9498 53.6393 58.6619 51.5414C58.472 50.1601 57.9084 48.8983 57.2285 47.6854C55.9667 45.4343 54.3679 43.4405 52.662 41.5172C50.7295 39.3396 48.7142 37.2294 46.9899 34.8711C46.0098 33.5296 45.0237 32.1974 44.4448 30.6201C44.2764 30.1637 44.1416 29.7013 44.0283 29.2265C44.1416 29.2112 44.1692 29.2908 44.1967 29.3429C45.1523 30.9661 46.4325 32.3321 47.6974 33.7073C50.2057 36.4361 52.9714 38.9047 55.5686 41.5447C57.6788 43.6886 59.6266 45.9458 61.1671 48.5369C61.8685 49.7191 62.4229 50.9717 62.7046 52.3224C63.0201 53.8261 62.9772 55.3422 62.7536 56.8582C62.5852 57.9975 62.3647 59.1154 61.893 60.1782C61.0477 62.0893 59.5531 62.9836 57.5072 63.0326C57.0049 63.0449 56.5149 62.9377 56.0371 62.7846C54.8733 62.414 53.783 61.8902 52.7386 61.244C50.414 59.8015 48.3191 58.0925 46.5274 56.0221C44.5796 53.771 42.9839 51.3178 42.2029 48.4052C41.8966 47.2689 41.7649 46.1081 41.7374 44.9321C41.6608 41.5325 41.9977 38.1635 42.5214 34.8098C42.5429 34.6781 42.5796 34.5464 42.6072 34.427C42.6899 34.4025 42.7205 34.4454 42.7358 34.4852C43.4433 36.5923 44.6071 38.4636 45.774 40.3349C46.8705 42.096 48.0343 43.8203 49.0174 45.6518C49.7188 46.9565 50.2915 48.3041 50.5365 49.7742C50.7693 51.1677 50.5365 52.5 50.0587 53.8016C49.8443 54.3897 49.5963 54.9655 49.2869 55.5106C49.1736 55.7066 49.2042 55.7985 49.4094 55.9057C49.9148 56.1661 50.4048 56.4509 50.8979 56.7357C51.0633 56.8307 51.1735 56.8521 51.2838 56.6469C52.3129 54.699 52.9836 52.6623 52.8795 50.4235C52.806 48.8339 52.3588 47.3424 51.6758 45.9183C50.754 44.001 49.6606 42.1879 48.4968 40.4085C48.4294 40.3074 48.3804 40.1941 48.3222 40.0838L48.3283 40.0869Z" fill="#868E96"/>
<path id="Vector_3" d="M35.0945 16.2248C35.7805 16.2248 36.4635 16.231 37.1495 16.2218C37.3823 16.2187 37.4926 16.28 37.6059 16.5189C38.1541 17.6827 39.0943 18.3197 40.3745 18.4545C40.8248 18.5004 41.275 18.5341 41.7068 18.6903C43.3913 19.2967 44.3438 21.1956 43.7894 22.8985C43.4587 23.9122 42.9564 24.8586 42.5123 25.8295C41.3393 28.4022 40.1203 30.9534 38.9534 33.5291C38.3287 34.9073 37.37 35.8506 35.8662 36.1875C34.2583 36.5459 32.5432 35.8537 31.6704 34.454C31.1436 33.6057 30.7791 32.6746 30.3626 31.7681C29.113 29.0545 27.8665 26.3379 26.6046 23.6274C26.1636 22.6749 25.9707 21.7193 26.3933 20.7086C26.9936 19.2722 28.1054 18.5739 29.6275 18.4637C30.9843 18.3657 31.9674 17.7164 32.534 16.4729C32.6259 16.2739 32.7423 16.2279 32.9353 16.2279C33.655 16.234 34.3747 16.2279 35.0945 16.2279V16.2248Z" fill="#868E96"/>
<path id="Vector_4" d="M35.0639 56.3559C33.0333 56.3559 31.0028 56.3498 28.9753 56.362C28.7241 56.362 28.5986 56.2855 28.5189 56.0527C28.3382 55.5259 28.1453 55.0053 27.9462 54.4877C27.8574 54.261 27.8849 54.0619 28.0075 53.8598C28.3413 53.3177 28.6537 52.7603 28.9171 52.1814C29.012 51.9762 29.1468 51.8936 29.3765 51.8936C33.1681 51.8997 36.9628 51.8997 40.7544 51.8936C40.9902 51.8936 41.1066 51.9762 41.1985 52.1876C41.465 52.7787 41.7957 53.3391 42.1326 53.8935C42.2306 54.0558 42.2704 54.2059 42.2031 54.3835C41.9887 54.9716 41.7682 55.5565 41.5691 56.1476C41.4925 56.3773 41.3271 56.359 41.1526 56.359C39.122 56.359 37.0914 56.359 35.0639 56.359V56.3559Z" fill="#868E96"/>
<path id="Vector_5" d="M46.3865 21.848C46.2364 21.8725 46.2058 21.7959 46.2058 21.6888C46.1966 21.0793 46.0741 20.4943 45.8414 19.9308C45.7587 19.7317 45.9149 19.7133 46.0251 19.6735C46.6775 19.4377 47.3329 19.2049 47.9883 18.9783C49.1828 18.5679 50.3772 18.1605 51.5747 17.7654C51.7983 17.6919 51.8902 17.5725 51.9116 17.3458C52.1689 14.7027 52.4323 12.0596 52.6926 9.41651C52.7661 8.6784 52.8335 7.94029 52.9009 7.19912C52.9254 6.92041 53.0387 6.70602 53.2592 6.51613C55.4001 4.68157 57.5592 2.86846 59.746 1.09209C59.9206 0.951204 60.0186 0.929765 60.1656 1.11659C60.4872 1.52699 60.818 1.93433 61.1702 2.31717C61.357 2.52237 61.3478 2.64182 61.1365 2.81945C59.743 3.97409 58.3556 5.13485 56.9651 6.29562C56.4138 6.75502 55.8625 7.21749 55.3051 7.67383C55.1397 7.80859 55.0662 7.96479 55.0448 8.17612C54.6681 11.542 54.3618 14.9171 54.0218 18.2861C53.8993 19.4959 54.1382 19.1682 53.002 19.5663C50.904 20.3044 48.7999 21.018 46.6989 21.7408C46.5886 21.7776 46.4784 21.8143 46.3896 21.845L46.3865 21.848Z" fill="#868E96"/>
<path id="Vector_6" d="M24.3015 19.8323C24.2679 19.9242 24.228 20.01 24.2035 20.0988C24.0718 20.6041 23.9187 21.1033 23.9126 21.6301C23.9095 21.8813 23.8054 21.8813 23.6063 21.8108C21.2664 20.9931 18.9265 20.1815 16.5805 19.379C16.3201 19.2902 16.1915 19.1708 16.1639 18.8737C15.9005 16.0805 15.6188 13.2873 15.3431 10.4941C15.2666 9.73153 15.1869 8.97198 15.1165 8.20937C15.095 7.96129 14.9971 7.78059 14.8041 7.62133C12.9297 6.08385 11.0615 4.53719 9.19323 2.99052C9.15648 2.9599 9.11971 2.93233 9.08602 2.9017C8.85122 2.70569 8.82877 2.49437 9.01865 2.26773C9.33105 1.89408 9.65263 1.52655 9.95277 1.14371C10.0967 0.959952 10.1947 0.959952 10.3724 1.10084C12.4213 2.73938 14.4182 4.43612 16.4304 6.11754C16.9419 6.54632 17.2236 6.97203 17.2818 7.69483C17.5391 10.9076 17.8974 14.1143 18.2098 17.324C18.2343 17.5629 18.317 17.6854 18.5559 17.7681C20.3782 18.3806 22.1944 19.0115 24.0106 19.6363C24.127 19.6761 24.2617 19.6914 24.3046 19.8354L24.3015 19.8323Z" fill="#868E96"/>
<path id="Vector_7" d="M40.0683 36.0957C39.6947 38.307 39.6242 40.4539 39.5323 42.5948C39.5201 42.8796 39.4742 42.9868 39.1495 42.9837C36.4206 42.9684 33.6948 42.9715 30.966 42.9837C30.6903 42.9837 30.6015 42.9347 30.5862 42.6346C30.479 40.4937 30.4484 38.3468 30.0533 36.1171C31.4315 37.673 33.0456 38.5183 35.0577 38.5214C37.0853 38.5244 38.6993 37.6761 40.0653 36.0957H40.0683Z" fill="#868E96"/>
<path id="Vector_8" d="M51.2135 34.0592C52.3773 34.0592 53.4585 33.9979 54.5304 34.0776C55.4003 34.1419 55.9576 33.8816 56.4997 33.1679C57.9392 31.2721 59.5226 29.4927 61.0601 27.6796C61.2408 27.4652 61.4368 27.3672 61.7155 27.3672C64.2453 27.3733 66.7782 27.3733 69.308 27.3672C69.5561 27.3672 69.6204 27.4376 69.6143 27.6796C69.5959 28.2125 69.5928 28.7485 69.6143 29.2814C69.6234 29.5417 69.5499 29.6091 69.2896 29.6091C67.1426 29.5968 64.9926 29.6091 62.8456 29.5938C62.4689 29.5938 62.227 29.6795 61.9789 29.9919C60.4016 31.9704 58.76 33.8969 57.1307 35.8356C56.8367 36.1878 56.5488 36.3225 56.1047 36.3011C55.3635 36.2674 54.6193 36.2827 53.875 36.298C53.5994 36.3042 53.4033 36.2306 53.2043 36.0285C52.6285 35.4405 52.019 34.8831 51.4279 34.3103C51.3728 34.2552 51.3238 34.1939 51.2104 34.0653L51.2135 34.0592Z" fill="#868E96"/>
<path id="Vector_9" d="M18.6907 34.0622C18.0567 34.7544 17.3859 35.4895 16.7091 36.2184C16.6233 36.3103 16.4947 36.2919 16.3783 36.2919C15.484 36.2919 14.5927 36.2858 13.6984 36.2949C13.4749 36.2949 13.3371 36.2061 13.1992 36.0469C11.4382 34.0132 9.72612 31.9367 8.0355 29.8418C7.88543 29.655 7.73537 29.5968 7.50873 29.5968C5.29133 29.6029 3.07699 29.5968 0.859597 29.6091C0.562515 29.6091 0.489016 29.5264 0.501266 29.2415C0.525768 28.6964 0.51352 28.1512 0.504332 27.6061C0.501269 27.4254 0.556385 27.3672 0.740147 27.3702C3.34038 27.3764 5.93756 27.3764 8.53779 27.3702C8.79812 27.3702 8.92675 27.5387 9.07376 27.7041C10.7919 29.6826 12.4672 31.7009 14.1027 33.7498C14.2865 33.9795 14.4794 34.0714 14.7765 34.0684C16.121 34.05 17.4656 34.0622 18.6907 34.0622Z" fill="#868E96"/>
<path id="Vector_10" d="M35.0609 49.6665C33.4713 49.6665 31.8818 49.6603 30.2922 49.6726C29.9737 49.6726 29.9308 49.593 30.0197 49.2959C30.3841 48.0555 30.6138 46.7936 30.5985 45.4951C30.5985 45.2654 30.6689 45.2041 30.8925 45.2041C33.6765 45.2102 36.4605 45.2102 39.2445 45.2041C39.4467 45.2041 39.5293 45.2439 39.5232 45.4675C39.4926 46.7906 39.7437 48.0739 40.1174 49.3357C40.197 49.6083 40.1419 49.6726 39.8662 49.6726C38.2644 49.6634 36.6657 49.6665 35.0639 49.6665H35.0609Z" fill="#868E96"/>
<path id="Vector_11" d="M40.3072 58.6246C38.2123 62.597 33.4406 62.7838 30.9169 60.1621C30.531 59.7609 30.2217 59.2954 29.9123 58.8329C29.8205 58.692 29.7745 58.5879 30.0257 58.5879C33.4222 58.594 36.8218 58.594 40.2183 58.5971C40.2398 58.5971 40.2612 58.6124 40.3072 58.6277V58.6246Z" fill="#868E96"/>
<path id="Vector_12" d="M21.6921 65.3325C21.7013 65.4428 21.6523 65.5377 21.6063 65.6296C20.8866 67.1058 20.1607 68.5821 19.4441 70.0614C19.3644 70.2267 19.2787 70.2145 19.1439 70.1441C18.6294 69.8807 18.1118 69.6173 17.5881 69.3722C17.3706 69.2712 17.3737 69.1609 17.4717 68.968C18.072 67.8041 18.6569 66.6342 19.2542 65.4734C19.3675 65.256 19.4012 65.0508 19.3338 64.8088C19.1868 64.2851 19.0704 63.7522 18.9295 63.2285C18.8836 63.0631 18.8897 62.9498 19.0551 62.8487C19.5788 62.5302 20.0964 62.1963 20.5773 61.8135C20.6814 61.7308 20.7886 61.6726 20.8345 61.8594C21.1224 63.0049 21.4073 64.1503 21.6921 65.2958C21.6921 65.308 21.6921 65.3203 21.6921 65.3295V65.3325Z" fill="#868E96"/>
<path id="Vector_13" d="M35.0453 13.9924C34.396 13.9924 33.7437 13.9924 33.0944 13.9924C32.978 13.9924 32.8218 14.0475 32.8279 13.827C32.8555 13.0277 32.7544 12.2252 32.8861 11.4289C33.0944 10.1487 34.0193 9.55457 35.1219 9.55763C36.3041 9.56375 37.2107 10.4918 37.275 11.6923C37.3117 12.3876 37.275 13.0859 37.2903 13.7811C37.2934 13.9955 37.18 13.9924 37.03 13.9924C36.3684 13.9894 35.7069 13.9924 35.0453 13.9924Z" fill="#868E96"/>
<path id="Vector_14" d="M48.4358 65.2559C48.497 65.0017 48.5706 64.6862 48.6502 64.3738C48.8523 63.5653 49.0698 62.7598 49.2535 61.9481C49.3117 61.6878 49.3914 61.7093 49.5659 61.8318C50.0498 62.1717 50.5337 62.5086 51.0299 62.8302C51.2106 62.9496 51.2351 63.066 51.18 63.2651C51.0483 63.7214 50.9564 64.187 50.8216 64.6403C50.7206 64.9833 50.7512 65.2804 50.9258 65.5989C51.5169 66.6739 52.0467 67.7795 52.5857 68.8852C52.7205 69.1639 52.6868 69.2772 52.3989 69.3997C51.9426 69.5926 51.5015 69.8285 51.0636 70.0643C50.8676 70.1715 50.7665 70.1531 50.6562 69.9449C49.9396 68.582 49.2505 67.2037 48.6012 65.8102C48.5277 65.654 48.4419 65.4978 48.4358 65.2559Z" fill="#868E96"/>
<path id="Vector_15" d="M27.8848 16.2216C27.3978 16.2216 26.9108 16.2063 26.4239 16.2277C26.1513 16.24 26.1237 16.1297 26.1605 15.9C26.4667 14.0348 27.6581 12.966 29.5448 12.8863C29.8878 12.871 30.3319 12.7363 30.5432 12.9537C30.7086 13.1252 30.5953 13.5693 30.5983 13.8909C30.6014 14.24 30.6044 14.5861 30.5983 14.9353C30.5861 15.7316 30.1144 16.2063 29.312 16.2216C28.8373 16.2308 28.3595 16.2216 27.8848 16.2216Z" fill="#868E96"/>
<path id="Vector_16" d="M42.2337 16.2215C41.759 16.2215 41.2812 16.2277 40.8065 16.2215C40.0133 16.2093 39.5294 15.7254 39.5202 14.9321C39.5141 14.3288 39.5202 13.7254 39.5202 13.1221C39.5202 12.9904 39.5079 12.8771 39.707 12.874C40.5217 12.8648 41.3302 12.874 42.0898 13.2323C43.2689 13.7836 43.7926 14.779 43.9733 16.0072C43.9978 16.1756 43.9335 16.2277 43.762 16.2246C43.2505 16.2154 42.7421 16.2215 42.2307 16.2215H42.2337Z" fill="#868E96"/>
<path id="Vector_17" d="M36.7178 7.33103C36.8924 6.62355 37.0945 5.82724 37.2844 5.02788C37.3365 4.81349 37.4713 4.86556 37.606 4.89924C38.1236 5.02788 38.6351 5.17182 39.1557 5.28514C39.4069 5.34027 39.4375 5.45666 39.3793 5.67717C39.1557 6.54085 38.9475 7.40453 38.73 8.27128C38.7147 8.33866 38.6963 8.40604 38.681 8.47342C38.6504 8.6143 38.6994 8.82256 38.5555 8.87157C38.4268 8.91751 38.3411 8.72762 38.243 8.63268C37.8388 8.24371 37.4008 7.90988 36.8832 7.68324C36.7699 7.63424 36.6259 7.60055 36.7148 7.33103H36.7178Z" fill="#868E96"/>
<path id="Vector_18" d="M31.6092 8.89607C31.502 8.87157 31.5112 8.79194 31.4958 8.72762C31.2386 7.68324 30.9874 6.63886 30.721 5.59754C30.675 5.41378 30.7271 5.3464 30.8925 5.30352C31.4407 5.1657 31.9889 5.02482 32.5372 4.88087C32.7087 4.83493 32.7883 4.88087 32.8342 5.06157C33.0211 5.82418 33.2171 6.58679 33.4161 7.34634C33.4529 7.49335 33.4376 7.59748 33.2906 7.65874C32.675 7.92519 32.1574 8.32947 31.7041 8.8195C31.6735 8.85319 31.6337 8.87463 31.6092 8.89607Z" fill="#868E96"/>
</g>
</svg>
