<svg width="59" height="60" viewBox="0 0 59 60" fill="none" xmlns="http://www.w3.org/2000/svg">
<g id="Group">
<path id="Vector" d="M23.2028 51.9071C22.5155 51.8752 21.6712 51.9458 20.8269 51.8707C19.9439 51.791 19.2453 51.386 18.6763 50.7305C18.0323 49.9909 17.518 49.1626 16.9946 48.3387C16.0547 46.8618 14.9623 45.5077 13.7198 44.2743C12.855 43.4163 12.063 42.506 11.5077 41.4068C11.0253 40.451 10.8205 39.4269 10.7431 38.371C10.6566 37.1876 10.7226 36.0019 10.7841 34.8186C10.8751 33.048 10.7385 31.298 10.3835 29.5616C10.14 28.3737 10.0012 27.1675 9.85556 25.9659C9.83508 25.7998 9.88514 25.7611 10.0399 25.7315C12.1222 25.3355 14.1294 24.6983 16.0456 23.7903C17.0105 23.3329 17.9504 22.814 18.9722 22.484C22.6452 21.2961 26.2227 21.5419 29.6727 23.2669C31.7232 24.2933 33.8396 25.1171 36.0835 25.595C36.2769 25.6359 36.4726 25.6974 36.6683 25.7065C36.9073 25.7201 36.9346 25.8362 36.9141 26.0365C36.7981 27.1493 36.6752 28.2621 36.4339 29.3522C35.9378 31.5984 35.9469 33.8673 36.038 36.143C36.088 37.3788 36.1085 38.6077 35.8263 39.8206C35.4895 41.2657 34.7909 42.5265 33.744 43.5733C32.0941 45.221 30.6308 47.012 29.3974 48.9941C29.0878 49.4925 28.7237 49.9568 28.3846 50.437C27.6564 51.4679 26.6346 51.9048 25.4034 51.9116C24.7207 51.9162 24.038 51.9116 23.2005 51.9116L23.2028 51.9071Z" fill="#868E96"/>
<path id="Vector_2" d="M24.3979 4.76772C24.3979 3.62074 24.3979 2.47377 24.3979 1.32679C24.3979 0.9604 24.4047 0.953573 24.7598 1.00364C27.0355 1.33135 29.1997 2.01634 31.2798 2.99036C33.3507 3.9621 35.2304 5.21376 36.7984 6.88188C38.33 8.51131 39.4292 10.3933 39.8502 12.6259C40.03 13.5817 40.0596 14.5443 40.0232 15.5138C39.9708 16.8496 39.8479 18.1809 39.7159 19.51C39.6954 19.7057 39.6158 19.8513 39.461 19.9628C39.4542 19.9674 39.4474 19.9742 39.4383 19.981C38.3437 20.8686 37.736 20.8959 36.58 20.0948C35.7675 19.5327 35.0529 18.8477 34.2883 18.2287C31.9465 16.3353 29.2999 15.1292 26.3209 14.6581C25.7679 14.5716 25.2104 14.5215 24.6528 14.5056C24.4594 14.4988 24.3934 14.4191 24.3956 14.2257C24.4047 13.6181 24.4002 13.0127 24.3956 12.4051C24.3934 11.8089 23.9382 11.3446 23.3647 11.3446C22.7617 11.3446 22.352 11.7702 22.3475 12.4006C22.3452 12.9877 22.3361 13.5771 22.352 14.1643C22.3588 14.3918 22.2906 14.4829 22.0562 14.4942C20.7249 14.5602 19.4254 14.8015 18.1533 15.1952C15.716 15.9484 13.5631 17.1978 11.6788 18.9137C11.1736 19.3734 10.6638 19.824 10.0949 20.2063C9.06624 20.8982 8.12181 20.798 7.25703 19.9059C7.12048 19.7649 7.07497 19.5987 7.05904 19.4189C6.91111 17.8896 6.76774 16.3626 6.74726 14.8242C6.71085 12.1297 7.62797 9.79028 9.27789 7.69204C10.6046 6.00344 12.2978 4.77454 14.1343 3.72315C16.5056 2.35998 19.0431 1.45424 21.7558 1.06508C22.3497 0.978606 22.3475 0.97633 22.3475 1.57257C22.3475 3.79142 22.3475 6.01027 22.3475 8.22912C22.3475 8.72978 22.6729 9.12121 23.1554 9.22589C23.6128 9.32603 24.1134 9.07797 24.3137 8.65013C24.3797 8.51131 24.3979 8.36339 24.3979 8.20864C24.3956 7.06166 24.3979 5.91469 24.3979 4.76772Z" fill="#868E96"/>
<path id="Vector_3" d="M49.4629 40.4717C54.729 40.5809 58.748 44.6795 58.7343 49.8682C58.7206 54.9431 54.7518 59.1191 49.4538 59.1646C44.2105 59.2101 39.9185 54.9864 40.0664 49.5223C40.1984 44.6226 44.1832 40.5149 49.4652 40.4717H49.4629ZM43.4959 49.8455C43.4959 49.8455 43.4959 49.8523 43.4959 49.8568C43.3639 49.8568 43.2297 49.8568 43.0977 49.8568C42.5083 49.8682 42.1328 50.2483 42.1214 50.8445C42.11 51.4521 42.5083 51.8868 43.1 51.905C43.3935 51.9141 43.6871 51.905 43.9807 51.9073C44.0512 51.9073 44.1605 51.8822 44.1764 51.9756C44.2105 52.1826 44.297 52.3988 44.099 52.5877C43.8714 52.8016 43.6507 53.0247 43.4413 53.2568C43.0772 53.6573 43.0635 54.2672 43.4004 54.6587C43.7508 55.0683 44.3607 55.1525 44.8136 54.8225C44.9934 54.6905 45.0503 54.7497 45.1595 54.8976C46.4316 56.6158 48.1453 57.3213 50.2481 57.0414C51.6795 56.8502 52.765 56.056 53.6139 54.9158C53.7345 54.7542 53.8073 54.6814 54.003 54.8475C54.3194 55.1184 54.8178 55.1184 55.175 54.8999C55.5414 54.6746 55.7212 54.2558 55.6529 53.8235C55.6029 53.514 55.4185 53.2909 55.2092 53.0816C55.0362 52.9063 54.8587 52.7356 54.6835 52.5604C54.5151 52.392 54.5629 52.1804 54.6175 51.996C54.6676 51.8299 54.8473 51.9118 54.968 51.905C55.2319 51.8936 55.4982 51.9118 55.7645 51.8982C56.2902 51.8709 56.718 51.3793 56.7066 50.8377C56.693 50.3074 56.1991 49.7954 55.7394 49.8409C55.4481 49.8705 55.1523 49.8455 54.8587 49.8409C54.7791 49.8409 54.6903 49.8614 54.6402 49.7567C54.5356 49.5405 54.6402 49.0922 54.836 48.9329C55.0271 48.7759 55.2274 48.6279 55.389 48.4459C55.8236 47.9566 55.7235 47.2261 55.1841 46.8551C54.8018 46.5911 54.3581 46.623 53.9188 46.9462C53.6548 47.1396 53.6048 47.1214 53.5684 46.7891C53.5411 46.5456 53.5524 46.2953 53.5138 46.0518C53.1542 43.8466 51.0673 41.9987 48.2909 42.6837C46.4658 43.1343 45.2915 44.7296 45.2232 46.689C45.2187 46.8187 45.2483 46.9871 45.1276 47.0554C45.023 47.1146 44.9456 46.953 44.8455 46.9052C44.8113 46.8893 44.7817 46.8642 44.7499 46.8438C44.2697 46.557 43.7258 46.648 43.3708 47.0782C43.0385 47.481 43.0544 48.0567 43.4277 48.4527C43.5892 48.6234 43.7759 48.7736 43.9579 48.9238C44.1627 49.0945 44.3084 49.5269 44.1855 49.759C44.0785 49.9592 43.8601 49.7886 43.6985 49.8364C43.637 49.8546 43.5665 49.8386 43.5005 49.8386L43.4959 49.8455Z" fill="#868E96"/>
<path id="Vector_4" d="M14.1024 47.9276C14.735 48.7128 15.2379 49.5594 15.7841 50.3763C16.5328 51.4983 17.318 52.5906 18.5105 53.3052C19.2091 53.724 19.9601 53.9493 20.7748 53.9538C22.4816 53.9629 24.1862 53.9697 25.893 53.9629C27.2925 53.9561 28.46 53.4122 29.4317 52.4109C30.3625 51.4505 31.0452 50.3103 31.7826 49.2089C32.0762 48.7719 32.3697 48.335 32.7498 47.8594V48.3464C32.7498 49.664 32.7475 50.9817 32.7498 52.2993C32.7498 52.6612 32.6451 52.9866 32.4949 53.3075C31.6665 55.0644 30.3147 56.3092 28.6557 57.2559C27.1059 58.1412 25.4492 58.7374 23.7037 59.0993C23.4352 59.1562 23.1757 59.1288 22.9163 59.0719C20.9728 58.6305 19.1272 57.9455 17.4545 56.844C16.0914 55.9451 14.9944 54.8072 14.289 53.3143C14.116 52.9479 14.0181 52.5702 14.0204 52.1651C14.0273 50.7996 14.0318 49.4365 14.0364 48.071C14.0364 48.0187 14.0159 47.9527 14.1046 47.9299L14.1024 47.9276Z" fill="#868E96"/>
<path id="Vector_5" d="M17.0857 59.1903C16.9218 59.1903 16.7898 59.1903 16.6578 59.1903C11.7195 59.1903 6.78112 59.1903 1.84049 59.1903C0.916537 59.1903 0.500077 58.7762 0.500077 57.8568C0.500077 57.5541 0.502352 57.2491 0.500077 56.9465C0.495525 56.4504 0.693515 56.0908 1.12818 55.8223C3.01022 54.6548 4.99467 53.7582 7.17483 53.303C8.83157 52.9571 10.288 52.1469 11.6762 51.2048C11.7422 51.1593 11.8037 51.0546 11.8879 51.1001C11.9721 51.1433 11.9266 51.2548 11.9311 51.3368C11.9357 51.4506 11.9402 51.5666 11.9266 51.6781C11.7468 52.9662 12.227 54.0699 12.8733 55.135C13.8701 56.7758 15.2287 58.0365 16.874 59.006C16.9423 59.047 17.0311 59.0675 17.0834 59.1949L17.0857 59.1903Z" fill="#868E96"/>
<path id="Vector_6" d="M37.6382 23.7563C36.9828 23.6084 36.3251 23.4741 35.672 23.3126C33.947 22.8824 32.3084 22.2225 30.7291 21.41C28.1939 20.106 25.4994 19.5712 22.657 19.6805C20.2265 19.7738 17.9576 20.4224 15.807 21.5329C13.7224 22.6094 11.5127 23.3171 9.20738 23.7336C9.07994 23.7563 8.98891 23.7267 8.89788 23.6425C8.5679 23.3376 8.21061 23.0782 7.79414 22.9029C7.72587 22.8733 7.6667 22.821 7.60981 22.7732C7.55292 22.7254 7.53471 22.6571 7.57567 22.5957C7.61891 22.532 7.68036 22.5866 7.72815 22.6025C8.80685 22.978 9.815 22.7914 10.7845 22.2407C11.631 21.7605 12.382 21.1506 13.0943 20.4975C15.4065 18.381 18.0987 17.0861 21.2119 16.6788C24.7871 16.21 28.1552 16.829 31.2798 18.645C32.1833 19.1707 32.9912 19.8261 33.7558 20.543C34.5159 21.2576 35.3374 21.9016 36.275 22.3772C37.1216 22.8073 38.0046 22.9029 38.924 22.6458C39.0128 22.6207 39.1379 22.5274 39.1925 22.6571C39.2403 22.7709 39.1152 22.8415 39.0219 22.8847C38.5986 23.085 38.2072 23.3285 37.8703 23.6562C37.8089 23.7154 37.7315 23.7541 37.6359 23.7586L37.6382 23.7563Z" fill="#868E96"/>
<path id="Vector_7" d="M29.6276 59.16C29.8006 59.069 29.9167 59.0143 30.0236 58.9483C32.1014 57.6489 33.7126 55.9421 34.6502 53.6459C34.8027 53.2704 34.8687 52.8858 34.8573 52.483C34.8436 52.021 34.8141 51.5567 34.8687 51.097C34.9688 51.0584 35.012 51.1403 35.0689 51.179C36.0065 51.8276 36.9988 52.3783 38.0638 52.7834C38.2732 52.863 38.3915 52.9791 38.453 53.1862C39.056 55.2457 40.2485 56.9229 41.7938 58.3771C42.0828 58.6502 42.4037 58.8823 42.7837 59.16H29.6254H29.6276Z" fill="#868E96"/>
<path id="Vector_8" d="M8.66329 33.0256C7.88271 32.154 7.34336 31.1549 7.04524 30.033C6.68112 28.6585 6.66974 27.2612 6.83815 25.857C6.87001 25.593 6.90187 25.3313 6.936 25.0673C6.95649 24.9103 7.01793 24.8716 7.1613 24.9695C7.51632 25.2084 7.76437 25.4997 7.78486 25.9594C7.8554 27.5729 8.1467 29.1546 8.43799 30.7385C8.57681 31.4895 8.6906 32.2473 8.66557 33.0256H8.66329Z" fill="#868E96"/>
<path id="Vector_9" d="M38.0771 33.0392C38.1363 32.0311 38.2842 31.0343 38.4685 30.0421C38.7188 28.7039 38.9396 27.359 39.0192 25.9958C39.0466 25.5225 39.2377 25.1879 39.6405 24.9581C39.7657 24.8875 39.8431 24.8875 39.8658 25.065C40.057 26.5261 40.1389 27.9871 39.8681 29.4458C39.6269 30.7544 39.0648 31.9218 38.2205 32.9505C38.1863 32.9914 38.159 33.0483 38.0771 33.0392Z" fill="#868E96"/>
<path id="Vector_10" d="M49.4012 48.7872C50.3297 48.7872 51.2605 48.794 52.189 48.7826C52.4279 48.7803 52.5281 48.8418 52.5258 49.0989C52.5144 50.0183 52.5372 50.9377 52.5144 51.8571C52.4712 53.5298 51.372 54.7542 49.7221 55.0045C48.4818 55.1934 47.0731 54.3491 46.5246 53.0974C46.3358 52.6627 46.2516 52.2099 46.247 51.7434C46.2379 50.8513 46.2516 49.9614 46.2379 49.0694C46.2356 48.8395 46.3085 48.7781 46.5292 48.7803C47.4873 48.7894 48.4431 48.7849 49.4012 48.7849V48.7894V48.7872Z" fill="#868E96"/>
<path id="Vector_11" d="M49.4148 46.6933C48.8095 46.6933 48.2041 46.6842 47.5988 46.6979C47.3371 46.7047 47.2984 46.6114 47.353 46.377C47.5806 45.4121 48.195 44.8204 49.1599 44.6565C50.209 44.479 51.397 45.4144 51.4789 46.4748C51.4948 46.6819 51.3993 46.7093 51.2308 46.7093C50.6255 46.7047 50.0202 46.7093 49.4148 46.7093C49.4148 46.7047 49.4148 46.7001 49.4148 46.6956V46.6933Z" fill="#868E96"/>
</g>
</svg>
