<svg width="81" height="81" viewBox="0 0 81 81" fill="none" xmlns="http://www.w3.org/2000/svg">
<g id="insect">
<path id="Vector" d="M15.5338 31.3408C15.7272 26.4948 16.2919 22.1883 17.9001 18.1019C19.1123 15.017 20.8156 12.239 23.5133 10.2206C25.4468 8.77274 27.635 8.01623 30.0441 7.98213C32.3674 7.95112 34.175 8.98047 35.5469 10.8345C36.9341 12.7103 37.6768 14.8744 38.2108 17.1191C38.4624 18.1732 38.7049 19.2305 38.7663 20.3156C38.7785 20.5234 38.8706 20.5575 39.0333 20.5172C39.69 20.3498 40.3437 20.3188 41.0005 20.5141C41.1939 20.5699 41.1908 20.4366 41.2061 20.294C41.4516 18.226 41.8936 16.2014 42.6117 14.245C43.155 12.7692 43.9038 11.4081 44.9657 10.2423C46.4633 8.59601 48.3232 7.86742 50.5298 7.99763C53.9425 8.19916 56.6279 9.80208 58.7916 12.3909C61.2498 15.3333 62.6063 18.7964 63.4534 22.4984C64.1654 25.605 64.4815 28.7643 64.4999 31.9454C64.5061 33.3158 64.1347 34.652 63.7941 35.9728C63.257 38.0625 62.4283 40.022 61.1915 41.7955C61.0258 42.0342 60.9123 42.1303 60.6698 41.8916C60.4703 41.6931 60.2401 41.5257 60.0161 41.3552C59.8596 41.2343 59.8657 41.1351 59.9793 40.9769C61.7685 38.4842 62.6156 35.6318 62.9654 32.6275C63.1404 31.13 62.9531 29.6076 62.8365 28.1008C62.6094 25.1306 62.1153 22.2069 61.0718 19.4103C60.2371 17.1718 59.2304 15.0046 57.5977 13.2188C55.8944 11.3585 53.9241 9.9292 51.3646 9.55405C49.0137 9.2099 47.0311 9.60675 45.3033 12.1987C43.8608 14.3628 43.247 16.8122 42.8235 19.3297C42.7345 19.863 42.6885 20.4056 42.5995 20.9388C42.5596 21.1869 42.6301 21.3543 42.8174 21.5093C44.2383 22.6751 45.1314 24.2098 45.8066 25.8933C45.9969 26.3677 45.9876 26.3677 46.4357 26.1507C47.7002 25.5368 48.9646 24.9198 50.2352 24.3183C50.4439 24.2191 50.539 24.092 50.5758 23.8625C50.8213 22.3712 51.1589 20.9047 51.8004 19.525C52.2116 18.6383 52.7333 17.8353 53.4883 17.2059C53.9947 16.7843 54.5686 16.5331 55.2223 16.4587C55.4555 16.4339 55.566 16.4835 55.5446 16.7347C55.5353 16.837 55.5445 16.9424 55.5415 17.0447C55.5384 17.302 55.5844 17.5749 55.5139 17.8167C55.431 18.1112 55.0934 17.9593 54.8847 18.0647C54.1175 18.443 53.6418 19.091 53.2551 19.8103C52.5983 21.0288 52.316 22.365 52.0981 23.7199C52.0766 23.847 52.0397 23.9773 52.0489 24.1044C52.1073 24.9384 51.6377 25.3322 50.941 25.6484C49.6367 26.2406 48.3569 26.8855 47.0465 27.4622C46.4971 27.704 46.5063 27.7164 46.7089 28.2776C47.5467 30.6091 48.2158 32.9871 48.6454 35.4303C48.7221 35.8705 48.8817 36.0783 49.339 36.1713C51.1282 36.5402 52.9021 36.9681 54.6883 37.3525C55.207 37.4641 55.4586 37.7339 55.563 38.2672C56.0694 40.8064 56.7844 43.2744 58.0734 45.5377C58.4908 46.2725 58.9911 46.9391 59.6816 47.4382C59.8565 47.5654 59.8719 47.6739 59.743 47.8506C59.5987 48.0459 59.4821 48.263 59.3593 48.4738C59.2396 48.6784 59.1199 48.6908 58.9297 48.5389C58.3128 48.049 57.7819 47.4785 57.3276 46.8306C56.3302 45.3982 55.7011 43.7983 55.1732 42.1489C54.8356 41.0948 54.5226 40.0313 54.3016 38.9431C54.2586 38.7229 54.1482 38.6268 53.9241 38.5803C52.3988 38.261 50.8766 37.9292 49.3574 37.5851C49.0597 37.5169 49.0198 37.5789 49.0659 37.8734C49.6336 41.5071 49.8301 45.1625 49.6428 48.8365C49.6122 49.4287 49.5569 50.0209 49.4833 50.61C49.4434 50.9169 49.5477 51.1153 49.7717 51.3107C51.162 52.5105 52.5553 53.7042 53.921 54.9351C55.3144 56.1877 55.118 55.8962 54.6331 57.4712C53.6356 60.7143 52.8101 64.0007 52.3589 67.3678C52.1379 69.0203 52.0183 70.6822 52.2484 72.3502C52.3252 72.9052 52.4786 73.4354 52.761 73.919C52.8684 74.1051 52.8469 74.2198 52.6904 74.3469C52.4909 74.5081 52.2883 74.6693 52.1073 74.8492C51.9047 75.0507 51.7881 75.0197 51.65 74.7717C51.2295 74.0182 51.0116 73.2028 50.8704 72.3595C50.5513 70.4465 50.7722 68.5522 51.0546 66.6578C51.5579 63.2815 52.3988 59.9888 53.4392 56.7457C53.5067 56.5318 53.4883 56.3954 53.3042 56.2497C52.0183 55.2265 50.8305 54.0887 49.5937 53.0035C49.4925 52.9136 49.3943 52.7431 49.2531 52.7958C49.1303 52.8423 49.2009 53.0252 49.1825 53.1461C48.5227 57.403 47.4147 61.5235 45.334 65.3153C44.5667 66.7136 43.6153 67.9693 42.2741 68.8839C40.666 69.9815 39.2205 69.9784 37.6185 68.8684C36.4031 68.0251 35.5929 66.8345 34.8471 65.5975C33.2328 62.928 32.2722 59.995 31.5418 56.9752C31.2226 55.6575 31.0017 54.3243 30.7838 52.988C30.7316 52.6811 30.6272 52.7493 30.4799 52.8857C29.2032 54.0577 27.9142 55.2203 26.5823 56.3272C26.4227 56.4574 26.3828 56.5814 26.4565 56.7953C27.549 60.0353 28.4114 63.3373 28.9086 66.726C29.1572 68.4251 29.3782 70.1303 29.1633 71.8542C29.0375 72.8556 28.8349 73.8384 28.3316 74.7313C28.1874 74.9856 28.0708 75.0817 27.816 74.8461C27.592 74.6383 27.2329 74.5329 27.0979 74.288C26.9475 74.012 27.282 73.7423 27.3741 73.4571C27.5521 72.899 27.6718 72.3347 27.6963 71.7518C27.8007 69.4699 27.5644 67.2159 27.1316 64.9774C26.6038 62.2645 25.9286 59.595 25.0601 56.9752C24.8483 56.3334 24.9434 55.9024 25.456 55.4529C26.9751 54.129 28.4482 52.7493 30.0042 51.4688C30.4155 51.1309 30.5659 50.8115 30.5014 50.2565C30.2682 48.2661 30.2897 46.2601 30.3541 44.2572C30.4247 42.0466 30.6549 39.8546 30.9863 37.6719C31.0231 37.43 30.974 37.3432 30.704 37.4021C29.1204 37.7556 27.5368 38.0997 25.9501 38.4346C25.6647 38.4935 25.6831 38.7229 25.6462 38.9089C25.3854 40.1987 25.0509 41.4699 24.6212 42.7132C24.0657 44.3254 23.4335 45.9004 22.3655 47.2553C21.9818 47.7421 21.5399 48.1668 21.0366 48.5327C20.834 48.6784 20.7297 48.6567 20.6223 48.4459C20.4811 48.1699 20.3338 47.9002 20.1773 47.6336C20.0852 47.4754 20.122 47.3824 20.2601 47.2801C21.0151 46.7313 21.5215 45.9841 21.9665 45.1718C23.1665 42.9798 23.8754 40.6204 24.3818 38.1865C24.5046 37.5882 24.8115 37.2843 25.4069 37.1603C27.2421 36.7759 29.0713 36.3449 30.9035 35.9418C31.152 35.886 31.3024 35.8054 31.3577 35.5171C31.8426 32.9282 32.4779 30.3797 33.463 27.9334C33.5704 27.6699 33.3679 27.6482 33.2359 27.5831C31.9316 26.9351 30.6211 26.2902 29.3137 25.6484C29.1418 25.5647 28.973 25.4624 28.795 25.4035C28.2426 25.2205 28.0616 24.8082 28.0063 24.2563C27.8406 22.641 27.4539 21.0846 26.7204 19.6274C26.5209 19.2336 26.2662 18.8802 25.9654 18.5608C25.6401 18.2136 25.2688 17.95 24.79 17.888C24.5782 17.8601 24.5046 17.7516 24.5107 17.5532C24.5168 17.2679 24.5291 16.9858 24.5168 16.7006C24.5076 16.4587 24.6058 16.3812 24.8391 16.4091C25.4621 16.4897 26.0176 16.7284 26.5117 17.1222C27.3618 17.7981 27.8835 18.7065 28.3163 19.6832C28.8902 20.976 29.2124 22.3402 29.4518 23.7292C29.4978 23.9866 29.6114 24.1385 29.8416 24.2501C31.1582 24.8795 32.4687 25.512 33.7761 26.1569C34.0093 26.2716 34.1106 26.2158 34.2026 25.9832C34.8717 24.2687 35.774 22.7092 37.2072 21.5186C37.3361 21.4101 37.3944 21.283 37.376 21.1125C37.0445 18.0399 36.4706 15.0325 34.8287 12.3537C33.9142 10.8624 32.6436 9.78968 30.8789 9.47034C29.5531 9.23161 28.2518 9.42073 26.9935 9.8765C24.5414 10.7663 22.7215 12.4623 21.2637 14.5892C19.3364 17.3981 18.2622 20.5482 17.6576 23.8811C17.1788 26.5165 16.921 29.1829 16.9824 31.8555C17.0561 35.114 17.9952 38.1276 19.9164 40.7847C20.1128 41.0544 20.1312 41.2126 19.8581 41.4079C19.6494 41.5567 19.4499 41.721 19.2688 41.904C19.0693 42.1055 18.9589 42.0621 18.7993 41.8389C17.5103 40.0189 16.6663 37.9974 16.1262 35.8426C15.718 34.2118 15.3865 32.5686 15.5369 31.3439L15.5338 31.3408ZM40.0123 30.4758C41.8383 30.606 43.5294 30.1843 45.0025 28.9907C45.2112 28.8201 45.2941 28.6744 45.1774 28.4078C45.0301 28.0667 44.9166 27.7102 44.803 27.3536C44.7324 27.1335 44.6803 27.0777 44.4869 27.2761C43.8608 27.9179 43.1273 28.4016 42.2741 28.6899C41.1294 29.0775 39.9509 29.0434 38.7816 28.9287C37.4619 28.8015 36.3387 28.2156 35.4425 27.2203C35.2952 27.056 35.2461 27.118 35.1909 27.2699C35.0497 27.6575 34.9177 28.045 34.7673 28.4295C34.6783 28.6589 34.7336 28.8077 34.93 28.9566C35.464 29.3596 36.0195 29.7193 36.6333 29.9859C37.7075 30.4479 38.8338 30.5161 40.0092 30.4758H40.0123Z" fill="#868E96"/>
</g>
</svg>
