<svg width="63" height="76" viewBox="0 0 63 76" fill="none" xmlns="http://www.w3.org/2000/svg">
<g id="Group">
<path id="Vector" d="M18.4634 75.2453C13.7838 75.2453 9.10781 75.2453 4.42815 75.2453C2.01284 75.2453 0.503273 73.732 0.503273 71.313C0.503273 63.6363 0.495909 55.9559 0.503273 48.2792C0.506955 45.0208 1.1071 41.8544 2.1822 38.7837C3.75068 34.3139 6.25804 30.4443 9.70795 27.1968C9.98777 26.9354 10.0909 26.6667 10.0872 26.2838C10.0688 24.3471 10.0798 22.4141 10.0798 20.4774C10.0798 19.3986 10.5585 18.9163 11.6262 18.9126C12.1932 18.9126 12.4767 18.6304 12.4767 18.0658C12.4767 17.6166 12.4767 17.1674 12.4767 16.7182C12.4694 15.7978 11.9502 15.286 11.0739 15.3081C9.65272 15.3486 8.23152 15.3191 6.80663 15.3155C6.65936 15.3155 6.50472 15.3118 6.36113 15.2823C5.52535 15.1093 5.12403 14.4208 5.44435 13.6292C5.88985 12.5209 6.37955 11.4274 6.85083 10.3302C7.53197 8.73595 8.22416 7.14907 8.88321 5.55114C9.18145 4.82949 9.6785 4.53125 10.4443 4.53125C19.7889 4.53861 29.1335 4.53494 38.4781 4.53862C39.5458 4.53862 40.0245 5.02094 40.0245 6.09605C40.0245 8.65495 40.0245 11.2138 40.0245 13.7727C40.0245 14.8479 39.5458 15.3228 38.467 15.3228C35.3743 15.3228 32.2778 15.3228 29.185 15.3228C27.1416 15.3228 25.2896 16.6851 24.6674 18.6291C24.5864 18.8869 24.66 18.9384 24.892 18.92C25.0393 18.909 25.1902 18.92 25.3412 18.92C26.3537 18.92 26.8471 19.4207 26.8471 20.4443C26.8471 22.381 26.8581 24.3139 26.8397 26.2506C26.836 26.663 26.9538 26.9502 27.2521 27.23C29.9656 29.7447 32.0753 32.7123 33.6364 36.0591C35.4958 40.0466 36.4383 44.2513 36.4347 48.6622C36.4273 56.2284 36.4347 63.791 36.431 71.3572C36.431 72.9809 35.7756 74.2291 34.2476 74.9249C33.7174 75.1643 33.1504 75.2526 32.5724 75.2526C27.8706 75.2526 23.1652 75.2526 18.4634 75.2526V75.2453ZM18.4708 64.45C24.7999 64.5457 30.1497 59.4316 30.4516 53.0473C30.7756 46.188 25.3706 40.6946 18.909 40.4847C11.6999 40.2491 6.76982 46.0443 6.47895 51.8764C6.12549 58.9272 12.0165 64.5899 18.4708 64.4537V64.45ZM18.4598 26.107C20.3412 26.107 22.2263 26.1033 24.1078 26.1144C24.3765 26.1144 24.4686 26.0591 24.4649 25.7683C24.4465 24.3949 24.4465 23.0216 24.4649 21.652C24.4649 21.3611 24.3765 21.3059 24.1078 21.3059C20.3412 21.3132 16.5746 21.3132 12.8118 21.3059C12.5577 21.3059 12.473 21.3611 12.473 21.6299C12.4878 23.0142 12.4878 24.3986 12.473 25.7867C12.473 26.0555 12.5577 26.1144 12.8118 26.1107C14.6932 26.0997 16.5783 26.1033 18.4598 26.1033V26.107Z" fill="#868E96"/>
<path id="Vector_2" d="M32.6679 17.7155C33.7909 17.7155 34.9139 17.7266 36.0332 17.7082C36.3277 17.7045 36.4124 17.7671 36.4455 18.0837C36.6296 20.0167 37.0751 21.8687 38.3343 23.4261C38.8203 24.0262 39.3984 24.5086 40.0979 24.8399C40.2894 24.932 40.4772 25.0277 40.6539 25.1419C41.1362 25.4548 41.313 25.9997 41.1141 26.5078C40.9153 27.0159 40.3999 27.3362 39.8623 27.2442C38.1981 26.9644 36.648 26.3679 35.19 25.5284C32.2335 23.8201 30.2269 21.3053 28.9971 18.1463C28.8351 17.7266 28.8535 17.7082 29.2953 17.7082C30.4183 17.7082 31.5413 17.7082 32.6606 17.7082L32.6679 17.7155Z" fill="#868E96"/>
<path id="Vector_3" d="M48.11 9.32829C48.11 9.68912 48.1211 10.0499 48.11 10.4108C48.0769 11.2392 47.3221 11.7436 46.5563 11.4196C45.8015 11.0993 45.0651 10.7384 44.3287 10.3739C43.9237 10.1714 43.6807 9.82534 43.6734 9.36143C43.666 8.88647 43.8759 8.51092 44.303 8.29737C45.0504 7.92919 45.7941 7.54996 46.5599 7.22963C47.3479 6.90195 48.0916 7.42476 48.11 8.27896C48.1174 8.62873 48.11 8.97484 48.11 9.32462V9.32829Z" fill="#868E96"/>
<path id="Vector_4" d="M53.213 8.12109C53.6843 8.16528 54.1592 8.06218 54.6268 8.19105C55.1902 8.34201 55.5915 8.82066 55.5804 9.33612C55.5694 9.86999 55.1865 10.3707 54.6084 10.4554C53.6843 10.5916 52.7417 10.5843 51.8176 10.4628C51.2285 10.3855 50.8161 9.84421 50.8272 9.3177C50.8382 8.78383 51.2248 8.33096 51.7992 8.18736C52.2668 8.06954 52.7417 8.16528 53.213 8.12478V8.12109Z" fill="#868E96"/>
<path id="Vector_5" d="M60.3817 8.12109C60.864 8.16528 61.3537 8.06219 61.8324 8.19474C62.3773 8.34569 62.7676 8.8096 62.7676 9.3177C62.7676 9.84789 62.3846 10.367 61.8139 10.4517C60.8751 10.5953 59.9251 10.5879 58.9863 10.4591C58.4193 10.3818 58.0143 9.85526 58.0106 9.33612C58.0069 8.80593 58.3972 8.33833 58.9642 8.19105C59.4318 8.06955 59.9067 8.16528 60.378 8.12109H60.3817Z" fill="#868E96"/>
<path id="Vector_6" d="M50.1459 12.4066C50.1938 11.5855 50.9412 11.0406 51.6813 11.313C52.5207 11.6223 53.3234 12.0236 54.1003 12.4691C54.6599 12.7895 54.8219 13.4264 54.5605 13.9529C54.2844 14.5126 53.6916 14.7629 53.0767 14.5163C52.2704 14.1923 51.4861 13.813 50.724 13.3933C50.3337 13.1797 50.157 12.8152 50.1459 12.4029V12.4066Z" fill="#868E96"/>
<path id="Vector_7" d="M57.7783 4.32118C57.2849 4.32118 56.8541 3.9935 56.6995 3.49645C56.5449 3.01044 56.6995 2.49497 57.1524 2.2262C57.5868 1.96478 58.0581 1.75861 58.5147 1.53402C58.8387 1.37569 59.1627 1.21737 59.4977 1.08114C60.1126 0.830774 60.7496 1.06642 61.0147 1.62606C61.2982 2.21516 61.1141 2.83739 60.5066 3.15035C59.7555 3.53695 58.9786 3.87936 58.2164 4.24018C58.0765 4.30646 57.9292 4.3175 57.7783 4.32118Z" fill="#868E96"/>
<path id="Vector_8" d="M56.6446 15.5033C56.6446 14.6639 57.4546 14.0858 58.2278 14.4172C58.9936 14.7412 59.7484 15.1057 60.4848 15.4886C61.0886 15.8016 61.2948 16.4459 61.0297 17.0129C60.7646 17.5799 60.1055 17.834 59.4796 17.5615C58.7506 17.2449 58.0326 16.8951 57.322 16.5379C56.906 16.3318 56.6446 15.993 56.6446 15.5033Z" fill="#868E96"/>
<path id="Vector_9" d="M51.3537 7.3951C50.8162 7.3951 50.3964 7.09687 50.2308 6.62559C50.0614 6.14326 50.1866 5.60202 50.6247 5.33325C51.4384 4.82883 52.3147 4.43119 53.2094 4.09614C53.7101 3.90837 54.2882 4.21397 54.5312 4.68524C54.7779 5.17125 54.6785 5.79716 54.2182 6.09171C53.3898 6.6219 52.4878 7.01219 51.571 7.36565C51.4937 7.3951 51.3979 7.38774 51.3537 7.39142V7.3951Z" fill="#868E96"/>
<path id="Vector_10" d="M8.88677 52.3255C9.04509 47.4986 12.6312 42.9331 18.4891 42.9073C23.8168 42.8852 28.0583 47.2777 28.0288 52.5096C28.003 57.6458 23.9677 61.9684 18.5222 62.042C13.1982 62.1156 8.88309 57.7011 8.88309 52.3255H8.88677ZM22.2336 53.6731C22.9552 53.6731 23.6805 53.6731 24.4022 53.6731C24.5384 53.6731 24.6783 53.6657 24.8072 53.6326C25.4257 53.4596 25.7497 52.9073 25.6466 52.2372C25.562 51.6886 25.0723 51.2836 24.4795 51.2799C22.9846 51.2762 21.4861 51.2725 19.9913 51.2836C19.7299 51.2836 19.6489 51.221 19.6599 50.9522C19.682 50.4551 19.6673 49.9544 19.6673 49.4537C19.6673 48.5038 19.6747 47.5575 19.6673 46.6076C19.6562 45.7755 19.196 45.2711 18.4744 45.2711C17.7196 45.2711 17.2741 45.7755 17.2741 46.6223C17.2741 48.0435 17.263 49.4684 17.2814 50.8896C17.2851 51.1989 17.2078 51.2836 16.8948 51.2799C15.411 51.2615 13.9272 51.2688 12.4435 51.2725C11.7733 51.2725 11.291 51.7659 11.28 52.4323C11.2689 53.154 11.7476 53.6657 12.4803 53.6694C13.953 53.6768 15.4221 53.6805 16.8948 53.6621C17.2115 53.6584 17.2851 53.7467 17.2814 54.0523C17.263 55.5251 17.2741 56.9978 17.2741 58.4706C17.2741 58.9382 17.4655 59.2916 17.8705 59.5162C18.2903 59.7519 18.7063 59.7114 19.1076 59.4536C19.5274 59.1849 19.6747 58.7762 19.6747 58.3012C19.6747 56.8653 19.682 55.4294 19.6673 53.9971C19.6673 53.7394 19.7299 53.6584 19.995 53.6621C20.7424 53.6805 21.4898 53.6694 22.2409 53.6694L22.2336 53.6731Z" fill="#868E96"/>
</g>
</svg>
