<svg width="81" height="81" viewBox="0 0 81 81" fill="none" xmlns="http://www.w3.org/2000/svg">
<g id="insect">
<path id="Vector" d="M41.5407 33.4504C42.85 34.6415 44.0131 35.914 44.6321 37.587C44.7953 37.5565 44.877 37.4173 44.9892 37.3291C45.2953 37.0848 45.6354 36.9015 46.0367 37.0067C46.5604 37.1425 46.9651 36.9456 47.3494 36.6301C48.2914 35.8496 48.9954 34.8655 49.6688 33.8576C50.9509 31.9335 52.0086 29.8839 53.1173 27.8614C53.692 26.8162 54.3654 25.8898 55.4639 25.3231C55.9502 25.072 56.3243 24.6444 56.7426 24.2881C56.9569 24.1049 57.1644 23.9352 57.4398 23.8266C57.7391 23.7112 57.8207 23.3583 58.0384 23.1513C58.2561 22.9477 58.3003 22.4658 58.7934 22.6559C58.8682 22.6864 58.9328 22.5371 58.9872 22.4557C59.3307 21.9466 59.5994 21.4003 59.7763 20.8132C59.8783 20.4739 60.0245 20.1854 60.3714 20.026C60.487 19.9751 60.5789 19.8563 60.6605 19.7545C61.3645 18.9061 62.3575 19.0622 63.0615 19.5475C63.1567 19.612 63.2791 19.6934 63.2315 19.8393C63.1873 19.9717 63.0581 20.0056 62.9391 20.0327C62.5445 20.1142 62.1501 20.1922 61.7556 20.2771C61.5957 20.311 61.4869 20.4026 61.3917 20.5519C60.7523 21.5632 60.0721 22.5473 59.1369 23.3176C58.9634 23.4601 58.79 23.5891 58.8512 23.8605C58.8818 23.9895 58.773 24.0506 58.6811 24.115C58.5519 24.2033 58.4193 24.2949 58.2935 24.3899C57.9534 24.6444 57.6303 24.8921 57.365 25.2485C56.9807 25.7609 56.3924 26.0595 55.8074 26.314C55.4129 26.4871 55.1749 26.7484 55.015 27.1556C54.0628 29.5412 52.6548 31.6688 51.2128 33.7762C50.502 34.8146 49.7198 35.7987 48.873 36.7352C48.1792 37.5056 47.38 38.1401 46.5264 38.717C46.1523 38.9715 45.7272 39.0631 45.2715 39.1208C45.4109 39.4941 45.4789 39.8606 45.4925 40.2441C45.4993 40.4205 45.5129 40.6343 45.7136 40.7158C45.8904 40.787 46.0026 40.6173 46.1217 40.5291C48.3118 38.8731 50.8319 38.113 53.5118 37.7702C53.6546 37.7533 53.8043 37.7635 53.9505 37.7702C54.3042 37.7804 54.4981 37.9603 54.6579 38.2894C56.44 41.9136 57.195 45.8602 58.3104 49.6948C58.6403 50.8282 59.0008 51.9548 59.3477 53.0848C59.4906 53.5497 59.7694 53.9332 60.0891 54.2929C60.5074 54.768 60.9427 55.2329 61.2046 55.8267C61.2998 56.0439 61.5039 56.1796 61.7011 56.3018C61.963 56.4613 62.1399 56.6819 62.2385 56.9737C62.3473 57.3029 62.565 57.5099 62.8813 57.6796C63.6873 58.1071 64.1498 58.8367 64.4525 59.6715C64.5205 59.8547 64.5171 60.0583 64.432 60.245C64.3878 60.3434 64.3538 60.4757 64.228 60.4791C64.0988 60.4859 64.0478 60.357 64.0137 60.2586C63.8709 59.8378 63.5512 59.5833 63.2009 59.3491C63.0819 59.2711 62.9663 59.2134 62.8268 59.288C62.5514 59.4374 62.3643 59.2982 62.1875 59.1082C61.8916 58.7926 61.8576 58.3515 61.6603 57.9985C61.4699 57.6558 60.9223 57.632 60.7285 57.2248C60.5142 56.7803 60.2082 56.4477 59.7797 56.1695C59.2831 55.8471 59.1131 55.277 59.1301 54.6899C59.1369 54.4524 59.0893 54.3234 58.8444 54.2827C58.4465 54.2182 58.341 53.8959 58.256 53.5735C58.018 52.6776 57.8513 51.7648 57.5657 50.8825C56.7631 48.3985 55.7904 45.9756 54.9198 43.5187C54.4777 42.2632 54.0389 41.011 53.8383 39.6875C53.7975 39.4127 53.6716 39.3686 53.4166 39.4025C52.3963 39.5348 51.4543 39.8436 50.6074 40.4578C49.8184 41.0313 48.8934 41.33 47.965 41.6014C47.2338 41.8152 46.5196 42.0562 45.9924 42.6568C45.87 42.7959 45.6966 42.8706 45.5163 42.9181C44.9007 43.0878 44.7205 43.814 45.1592 44.2823C45.6252 44.7811 46.1829 45.1272 46.7985 45.4191C48.788 46.359 50.5326 47.635 51.9576 49.3249C52.6378 50.1325 52.9132 51.0013 52.869 52.1109C52.7602 54.8087 52.4507 57.4895 52.3045 60.1839C52.1888 62.3082 52.2467 64.4325 52.2433 66.5568C52.2433 66.852 52.3657 67.0997 52.5562 67.3203C53.0357 67.8734 53.4302 68.4639 53.522 69.2138C53.5492 69.4412 53.709 69.6075 53.8859 69.7466C54.2974 70.0724 54.5661 70.4694 54.6001 71.009C54.6137 71.2228 54.7803 71.3483 54.9504 71.4535C55.8346 71.9999 56.2189 72.8754 56.4808 73.8221C56.5522 74.0834 56.5182 74.3583 56.3957 74.606C56.3549 74.6909 56.3209 74.7961 56.1985 74.7994C56.0591 74.7994 56.0149 74.6943 55.9843 74.5857C55.8584 74.1411 55.6544 73.7509 55.2633 73.4726C55.0966 73.3538 54.9402 73.2622 54.7259 73.3199C54.4743 73.3878 54.311 73.2724 54.1784 73.062C53.9573 72.7125 53.8145 72.3426 53.7975 71.932C53.7907 71.7691 53.7771 71.6062 53.6138 71.5214C53.0493 71.2262 52.7806 70.7205 52.614 70.1403C52.5493 69.9163 52.4337 69.7568 52.2093 69.6618C51.9202 69.5396 51.7705 69.2851 51.6685 69.0001C51.5189 68.5861 51.4202 68.1517 51.3794 67.7173C51.3488 67.4017 51.2026 67.2524 50.9408 67.1642C50.6891 67.0794 50.6074 66.9606 50.689 66.6756C51.0087 65.5523 51.0734 64.3986 51.0836 63.2346C51.1108 60.2314 50.9271 57.2248 51.0733 54.2216C51.1176 53.319 51.2434 52.4231 51.5699 51.5714C51.6651 51.3236 51.6039 51.154 51.4475 50.9775C50.9952 50.4685 50.4544 50.0749 49.8627 49.7491C49.4784 49.5387 49.0906 49.3317 48.6927 49.1383C47.3188 48.4732 46.0537 47.6655 44.9756 46.566C44.3464 45.9247 44.2512 45.9654 43.9417 46.7832C43.7478 47.2956 43.5404 47.8046 43.2683 48.2831C43.1697 48.4528 43.1425 48.6123 43.2037 48.8023C43.3228 49.1722 43.4248 49.5489 43.5268 49.9255C43.622 50.2751 43.6458 50.6348 43.5132 50.9707C43.3805 51.3067 43.5166 51.4492 43.7921 51.5951C44.7783 52.1245 45.6762 52.7659 46.4584 53.5769C47.999 55.1752 48.7642 57.1095 49.0158 59.2779C49.3865 62.4643 48.5805 65.4505 47.4446 68.3791C47.1794 69.0611 46.8801 69.7297 46.6046 70.4049C46.2815 71.199 45.8836 71.949 45.3633 72.6378C45.0946 72.9941 44.9042 73.4149 44.6933 73.812C44.4621 74.2565 44.2036 74.6841 43.8975 75.0845C43.6866 75.356 43.5064 75.6444 43.367 75.96C43.2207 76.2993 43.0064 76.5946 42.7412 76.8559C42.2582 77.3276 41.874 77.8807 41.4523 78.4033C40.8333 79.177 40.1599 79.1736 39.5478 78.3965C39.0955 77.8196 38.6533 77.2359 38.133 76.7133C38.0548 76.6353 37.9766 76.5505 37.929 76.4554C37.446 75.451 36.6774 74.6196 36.2081 73.6084C36.004 73.1638 35.7456 72.7498 35.4463 72.3596C34.7015 71.3857 34.3342 70.2217 33.8615 69.1154C33.1133 67.361 32.5011 65.5625 32.1678 63.6791C31.8209 61.7144 31.7631 59.7495 32.2494 57.7915C32.899 55.1582 34.4294 53.1866 36.776 51.853C37.2862 51.5646 37.6705 51.3474 37.4392 50.6212C37.2658 50.0681 37.5651 49.498 37.7521 48.955C37.8507 48.67 37.8371 48.4358 37.6773 48.1643C37.378 47.6485 37.1739 47.0818 36.9597 46.5253C36.7828 46.0638 36.6842 46.0367 36.2795 46.3387C36.1741 46.4201 36.0653 46.5016 35.9734 46.6C34.8886 47.7436 33.5554 48.5308 32.1542 49.2163C31.2666 49.6507 30.3892 50.1054 29.675 50.8248C29.4131 51.0895 29.3451 51.3304 29.4709 51.7003C29.9267 53.0238 29.9504 54.4117 29.9572 55.7894C29.9641 58.3413 29.9471 60.8931 29.9198 63.4484C29.9062 64.5445 30.0219 65.6168 30.3075 66.6722C30.3824 66.947 30.3246 67.0862 30.0593 67.1676C29.777 67.2558 29.6376 67.4323 29.6104 67.7547C29.5763 68.1755 29.4811 68.5996 29.3315 69.0001C29.2397 69.2478 29.1138 69.4819 28.8724 69.5939C28.5493 69.7432 28.4065 70.0147 28.318 70.3235C28.1718 70.8257 27.8997 71.2296 27.4338 71.4841C27.2264 71.596 27.2059 71.7827 27.2093 71.9863C27.2161 72.4342 27.0359 72.8143 26.7774 73.1672C26.6754 73.3097 26.5393 73.4115 26.3727 73.3301C26.0938 73.191 25.9136 73.3403 25.7129 73.493C25.3525 73.7611 25.1552 74.1275 25.0328 74.5483C25.0022 74.6569 24.9954 74.8232 24.8287 74.8062C24.6961 74.7961 24.6348 74.6671 24.5872 74.5517C24.4852 74.3074 24.4512 74.0495 24.5226 73.7984C24.8015 72.8313 25.1926 71.932 26.1312 71.406C26.3047 71.3076 26.3829 71.1583 26.4067 70.9615C26.4612 70.5101 26.6414 70.1199 27.0189 69.8382C27.308 69.6245 27.461 69.3462 27.5222 68.9831C27.6276 68.3655 27.9711 67.8531 28.3826 67.3916C28.6513 67.0929 28.7635 66.7638 28.7601 66.36C28.7431 64.7481 28.7601 63.1362 28.7533 61.5243C28.7499 59.8989 28.5323 58.287 28.4303 56.6649C28.3486 55.4093 28.1786 54.1639 28.1718 52.9016C28.1718 52.4978 28.165 52.0939 28.1208 51.6935C28.0391 50.9538 28.2908 50.326 28.7159 49.7491C29.828 48.239 31.27 47.1022 32.8514 46.1249C33.3309 45.8297 33.8173 45.5446 34.3444 45.3444C34.96 45.1136 35.4361 44.7098 35.8748 44.2449C36.2727 43.8241 36.0653 43.064 35.5109 42.9215C35.2627 42.857 35.062 42.7213 34.8953 42.5448C34.5519 42.1783 34.1199 41.9611 33.654 41.8017C32.7426 41.4895 31.7971 41.2689 30.9503 40.7904C30.7361 40.6716 30.5116 40.5664 30.3212 40.4137C29.4845 39.7418 28.4847 39.5416 27.4678 39.3686C27.2093 39.3244 27.2093 39.4907 27.1821 39.64C27.0631 40.2746 26.9407 40.9092 26.7468 41.5268C26.0292 43.8343 25.145 46.0808 24.3118 48.3442C23.7132 49.9731 23.1827 51.6155 22.812 53.3122C22.7134 53.7635 22.625 54.242 22.0298 54.3302C21.887 54.3506 21.9074 54.4863 21.904 54.5983C21.8836 55.3924 21.6387 56.0575 20.8463 56.4036C20.6592 56.4851 20.5912 56.6581 20.5096 56.821C20.2851 57.2723 19.9994 57.6592 19.4995 57.8255C19.2955 57.8967 19.2717 58.0698 19.241 58.2327C19.1832 58.5551 19.0574 58.8435 18.8364 59.081C18.6493 59.2846 18.4418 59.4577 18.1358 59.2745C18.0303 59.2134 17.9317 59.2609 17.8297 59.322C17.4624 59.5527 17.1291 59.8106 16.9794 60.245C16.9454 60.3434 16.8876 60.4757 16.7686 60.4757C16.6258 60.4757 16.5985 60.323 16.5543 60.2144C16.4523 59.9565 16.5067 59.702 16.6122 59.4679C16.9693 58.6772 17.4216 57.9544 18.2718 57.6015C18.4963 57.5065 18.6051 57.33 18.6799 57.1162C18.7649 56.8753 18.8363 56.6174 19.0744 56.4749C19.5165 56.2068 19.8158 55.8267 20.0437 55.3652C20.2171 55.0157 20.4994 54.7306 20.768 54.449C21.2578 53.9366 21.5707 53.3359 21.7883 52.6573C22.7202 49.7525 23.4446 46.7934 24.2676 43.8581C24.8015 41.951 25.4613 40.0948 26.3421 38.3166C26.5224 37.9535 26.774 37.7838 27.1719 37.7804C27.6753 37.7736 28.1752 37.8245 28.6649 37.9365C30.6238 38.3845 32.5454 38.9342 34.2356 40.0812C34.5077 40.2678 34.7797 40.4545 35.0348 40.6648C35.2218 40.8209 35.3477 40.7836 35.4157 40.58C35.5653 40.1423 35.5143 39.6604 35.6877 39.2226C35.7183 39.148 35.6504 39.1174 35.5857 39.1107C34.341 38.9342 33.501 38.0824 32.6508 37.2884C31.6849 36.3857 30.8857 35.3304 30.1103 34.258C28.9948 32.714 27.9745 31.1021 27.0393 29.4427C26.604 28.669 26.2129 27.8682 25.9102 27.0266C25.798 26.711 25.6041 26.521 25.3049 26.3887C24.7573 26.1443 24.1825 25.8966 23.7982 25.4351C23.3561 24.8989 22.829 24.4883 22.2747 24.0947C22.2202 24.054 22.142 23.9759 22.1522 23.9284C22.2134 23.5992 21.9788 23.4364 21.7781 23.2667C20.8803 22.5066 20.2205 21.5598 19.6084 20.5723C19.5097 20.4128 19.3737 20.328 19.2036 20.2873C18.8227 20.199 18.4384 20.1244 18.0609 20.0327C17.9385 20.0022 17.7685 19.9954 17.7446 19.8257C17.7242 19.6866 17.8569 19.6154 17.9487 19.5441C18.7207 18.957 19.7172 19.0656 20.3395 19.7986C20.3871 19.8529 20.4314 19.9309 20.4926 19.9547C21.0299 20.1685 21.1659 20.6605 21.319 21.1356C21.4754 21.6311 21.7441 22.0654 22.0094 22.5032C22.0808 22.6253 22.1624 22.7543 22.3597 22.6457C22.4923 22.571 22.5841 22.683 22.659 22.7848C23.0535 23.338 23.5058 23.8096 24.0873 24.2067C24.8491 24.7259 25.5259 25.374 26.3183 25.8661C26.8046 26.1681 27.1379 26.6364 27.4168 27.125C28.3622 28.7912 29.2907 30.4676 30.2395 32.1304C31.0524 33.5522 31.9638 34.913 33.0793 36.121C33.3037 36.3654 33.5486 36.5825 33.8138 36.7794C34.1267 37.0101 34.4668 37.1119 34.8477 37.0407C35.3341 36.9456 35.7422 37.078 36.0788 37.4343C36.2421 37.6074 36.3475 37.6345 36.4563 37.363C37.0447 35.9174 38.014 34.7501 39.1635 33.7219C39.2485 33.6438 39.4219 33.5963 39.3947 33.4674C39.3641 33.3079 39.1805 33.3418 39.0546 33.3181C37.0957 32.9448 34.7287 30.851 34.9293 28.272C35.0382 26.8671 35.3885 25.5064 35.9088 24.1931C35.919 24.1693 35.9258 24.1456 35.9394 24.1252C36.5312 23.1242 36.3101 22.1129 35.8748 21.156C35.1946 19.6595 34.6165 18.1121 33.8172 16.6698C33.5928 16.2626 33.382 15.8418 33.0691 15.4991C32.3413 14.6915 31.94 13.7583 31.7835 12.6859C31.5693 11.2268 31.2836 9.77438 31.2666 8.29145C31.253 7.15125 31.3414 6.02124 31.7597 4.94212C31.838 4.73512 31.9264 4.53491 32.0624 4.36184C32.4943 3.80532 33.1439 3.8698 33.4874 4.4874C33.705 4.88104 33.6676 5.29504 33.5826 5.70225C33.2357 7.33789 32.9773 8.9905 32.8208 10.6567C32.7392 11.5186 32.6916 12.3873 32.7902 13.2527C32.8208 13.5241 32.8956 13.782 33.0555 14.006C34.5552 16.0997 35.5687 18.4344 36.4563 20.8302C36.5482 21.0779 36.6808 21.2578 36.9631 21.2951C37.1603 21.3222 37.3134 21.2815 37.4358 21.1051C37.5888 20.8845 37.7555 20.6707 37.9459 20.4841C38.2384 20.1956 38.4186 19.8699 38.405 19.4491C38.388 18.879 38.8506 18.6822 39.2213 18.4141C39.3131 18.3462 39.3811 18.3767 39.4117 18.4853C39.4287 18.543 39.4457 18.6041 39.4525 18.6618C39.5206 19.1256 39.7949 19.3563 40.2755 19.3541C40.5306 19.3541 40.7891 19.3507 41.0441 19.371C41.3536 19.3982 41.4999 19.2624 41.5135 18.9604C41.5509 18.1664 41.6189 18.2919 42.146 18.6618C42.4419 18.8688 42.612 19.0995 42.5882 19.4728C42.5677 19.8054 42.7004 20.087 42.9248 20.3348C43.1391 20.5689 43.3296 20.8234 43.5336 21.0677C43.8465 21.4342 44.2988 21.3765 44.4892 20.9286C44.8701 20.0294 45.2374 19.1267 45.6013 18.224C46.1353 16.9074 46.7916 15.6552 47.6351 14.5082C48.101 13.877 48.2711 13.1848 48.2643 12.4145C48.2507 10.3411 47.9309 8.30841 47.5092 6.28592C47.4412 5.95337 47.4038 5.61063 47.3596 5.27468C47.3324 5.05411 47.3596 4.83693 47.4446 4.62653C47.5841 4.29058 47.8051 4.03268 48.1826 3.98857C48.5737 3.94106 48.8356 4.17181 49.009 4.4874C49.4137 5.22717 49.5736 6.0382 49.6654 6.8696C49.8355 8.40343 49.6314 9.9169 49.4035 11.427C49.3083 12.0548 49.1859 12.6758 49.0736 13.3002C48.9716 13.8601 48.7982 14.3895 48.4275 14.834C47.2712 16.2219 46.5298 17.8406 45.8428 19.4864C45.6319 19.992 45.4177 20.4976 45.1728 20.9897C44.8769 21.5802 44.8157 22.2283 44.6729 22.8561C44.6253 23.0699 44.7069 23.2633 44.7851 23.4567C45.3225 24.7836 45.7101 26.1409 45.972 27.556C46.5468 30.678 43.9859 32.955 41.874 33.3248C41.7651 33.3452 41.6597 33.3588 41.5407 33.4674V33.4504Z" fill="#868E96"/>
</g>
</svg>
