<svg width="54" height="72" viewBox="0 0 54 72" fill="none" xmlns="http://www.w3.org/2000/svg">
<g id="Group">
<path id="Vector" d="M38.8374 52.3805C38.8121 56.6975 37.9823 60.8277 36.0122 64.7013C34.8625 66.9627 33.3263 68.8726 31.1377 70.206C27.7836 72.2521 24.1792 71.758 21.2811 69.1418C18.4686 66.6048 16.9134 63.314 15.9981 59.7065C14.3827 53.3497 14.7438 47.1196 17.3632 41.0733C18.3292 38.8467 19.688 36.8829 21.5693 35.312C25.1104 32.36 29.7188 32.6008 32.9811 35.8662C35.6955 38.5838 37.1619 41.9348 38.0646 45.593C38.337 46.7016 38.5144 47.8291 38.6569 48.9598C38.7994 50.0937 38.8153 51.2371 38.8374 52.3773V52.3805Z" fill="#868E96"/>
<path id="Vector_2" d="M18.3765 19.2443C18.3702 16.0453 19.0448 13.7364 20.4543 11.6713C23.7641 6.80951 29.9942 6.77783 33.3515 11.5604C36.3953 15.9028 36.2306 22.2026 32.8194 26.2567C31.2674 28.1001 29.2847 29.1959 26.8301 29.1611C24.5021 29.1263 22.6239 28.0842 21.1257 26.3232C19.2222 24.0839 18.4272 21.4519 18.3765 19.2443Z" fill="#868E96"/>
<path id="Vector_3" d="M5.01681 15.1201C5.8308 15.364 6.43575 15.7441 7.07871 16.0291C8.53883 16.6753 9.97679 17.3657 11.4337 18.015C11.7473 18.1544 11.855 18.3223 11.8518 18.658C11.8328 20.4823 12.0925 22.294 12.1527 24.1152C12.1654 24.4668 12.3808 24.5713 12.6468 24.6695C15.1236 25.5564 17.591 26.4622 20.0741 27.3269C20.546 27.4916 20.6632 27.6911 20.5587 28.1725C20.3972 28.92 20.2958 29.6802 20.2198 30.4435C20.1786 30.8742 20.0361 30.9027 19.675 30.7571C16.8308 29.5947 14.0056 28.3784 11.1234 27.3237C9.9958 26.9088 9.47953 26.421 9.5302 25.1478C9.59988 23.4184 9.42251 21.6764 9.3655 19.9407C9.35283 19.5258 9.21664 19.2154 8.90625 18.9209C7.62666 17.7046 6.37557 16.4599 5.01047 15.1265L5.01681 15.1201Z" fill="#868E96"/>
<path id="Vector_4" d="M48.5067 15.1045C47.4267 16.2827 46.3815 17.4926 45.2571 18.6234C44.7313 19.1491 44.5064 19.6844 44.4938 20.416C44.4589 22.2879 44.3417 24.1598 44.2816 26.0317C44.2657 26.5479 44.0599 26.7886 43.5721 26.9818C40.4776 28.1981 37.3959 29.4587 34.3109 30.7034C33.7503 30.9315 33.7503 30.9251 33.6648 30.317C33.5571 29.541 33.4621 28.765 33.3164 27.9954C33.2499 27.6533 33.3322 27.5171 33.6553 27.4031C36.0086 26.5764 38.346 25.7054 40.7089 24.9041C41.4437 24.6539 41.7921 24.3277 41.7889 23.4852C41.7794 21.9047 42.0613 20.3305 42.0391 18.7437C42.0328 18.3066 42.2735 18.1008 42.6219 17.9424C44.3988 17.1379 46.1788 16.3302 47.9556 15.5226C48.1837 15.4181 48.4085 15.3135 48.6366 15.209C48.5922 15.1742 48.5511 15.1425 48.5067 15.1077V15.1045Z" fill="#868E96"/>
<path id="Vector_5" d="M1.64985 61.0712C2.71723 59.7504 3.76877 58.4202 4.85515 57.1121C5.20989 56.6845 5.47277 56.2316 5.6153 55.6931C6.21392 53.4285 6.84105 51.1671 7.42066 48.8961C7.56319 48.3418 7.77856 48.0599 8.38352 47.9269C10.2205 47.5183 12.0386 47.0274 13.8534 46.5365C14.3127 46.413 14.3285 46.5713 14.2652 46.9419C14.0973 47.9491 13.9199 48.9531 13.8883 49.9762C13.8788 50.2644 13.7869 50.3974 13.4924 50.4513C12.5105 50.635 11.535 50.863 10.5499 51.0404C10.1889 51.1069 9.99884 51.2652 9.88482 51.6232C9.2862 53.5172 8.65274 55.4017 8.05095 57.2958C7.92426 57.6949 7.72155 57.9577 7.33831 58.1573C5.52028 59.1075 3.71493 60.0893 1.9064 61.0585C1.83672 61.0965 1.75754 61.1155 1.68469 61.144C1.67202 61.1187 1.65935 61.0934 1.64668 61.068L1.64985 61.0712Z" fill="#868E96"/>
<path id="Vector_6" d="M52.1805 61.1346C51.3412 60.7007 50.4987 60.2731 49.6625 59.8297C48.6743 59.3039 47.6988 58.7528 46.7011 58.2428C46.2482 58.0116 45.9695 57.7012 45.8143 57.2071C45.2252 55.3289 44.5949 53.4602 43.9994 51.582C43.8949 51.2558 43.7175 51.1164 43.404 51.0563C42.4221 50.8662 41.4466 50.6413 40.4615 50.4671C40.1416 50.4101 40.0276 50.2708 40.0118 49.973C39.9516 48.9183 39.8408 47.8731 39.6159 46.8406C39.5525 46.546 39.5874 46.3972 39.9674 46.4985C41.9185 47.0148 43.8727 47.5121 45.8301 48.003C46.207 48.098 46.3337 48.3641 46.4192 48.6903C47.0083 50.9074 47.6133 53.1182 48.1739 55.3416C48.3766 56.1398 48.7282 56.8271 49.2856 57.4257C50.353 58.5691 51.2494 59.8518 52.1805 61.1378V61.1346Z" fill="#868E96"/>
<path id="Vector_7" d="M19.6275 35.3308C18.6995 36.3919 17.9584 37.4022 17.2996 38.476C17.1951 38.647 17.0304 38.647 16.8498 38.6217C14.9305 38.3746 13.0079 38.1434 11.0885 37.8868C10.737 37.8393 10.4836 37.9154 10.2238 38.1687C9.18498 39.1759 8.11761 40.1515 7.07557 41.1523C6.83802 41.3804 6.56246 41.4817 6.2584 41.5229C4.45938 41.7699 2.65719 42.0043 0.854995 42.2419C0.747307 42.2577 0.633286 42.2419 0.500259 42.169C1.22874 41.7826 1.9287 41.3329 2.69202 41.0288C4.79827 40.1863 6.45477 38.856 7.60767 36.8828C8.00992 36.1955 8.54835 35.5937 9.00761 34.9381C9.17231 34.7037 9.38136 34.6784 9.62841 34.6942C11.5953 34.8146 13.5622 34.9318 15.5322 35.0553C16.8498 35.1376 18.1643 35.2327 19.6275 35.3308Z" fill="#868E96"/>
<path id="Vector_8" d="M53.3914 42.2702C52.5204 42.1498 51.6937 42.0326 50.8639 41.9249C49.8535 41.7951 48.8431 41.662 47.8296 41.5544C47.421 41.5132 47.079 41.3802 46.7844 41.0951C45.7202 40.0721 44.6433 39.0585 43.5854 38.0292C43.3827 37.8328 43.1705 37.8296 42.9298 37.8613C41.2131 38.0798 39.4964 38.3015 37.7798 38.5201C37.5961 38.5423 37.406 38.5518 37.2255 38.5929C36.8803 38.6721 36.6617 38.5676 36.4812 38.2445C35.9649 37.3197 35.3029 36.4993 34.603 35.7075C34.5238 35.6188 34.4034 35.5238 34.4383 35.4098C34.4921 35.2356 34.6695 35.3243 34.793 35.3179C37.7418 35.1311 40.6905 34.9664 43.6393 34.7447C44.3424 34.6908 44.8175 34.7637 45.2514 35.432C46.0654 36.6862 47.0156 37.8455 47.9056 39.049C48.1115 39.3277 48.3617 39.5431 48.6721 39.7047C50.1196 40.449 51.567 41.1996 53.0113 41.9503C53.138 42.0168 53.3059 42.0358 53.3977 42.2733L53.3914 42.2702Z" fill="#868E96"/>
<path id="Vector_9" d="M32.9274 34.1336C32.0215 33.4337 31.1347 32.8952 30.156 32.5658C26.9729 31.4921 24.0019 31.9134 21.2876 33.9309C21.1957 33.9974 21.1165 34.14 20.9898 34.0418C20.9043 33.9753 20.9677 33.8517 20.9835 33.7536C21.2369 32.2079 21.4934 30.6654 21.6581 29.1071C21.6961 28.7524 21.8038 28.7207 22.1079 28.9139C25.3449 30.9727 28.5882 30.9568 31.8251 28.9108C31.9898 28.8062 32.1735 28.5972 32.2306 29.0121C32.4523 30.6781 32.6835 32.3409 32.9305 34.1368L32.9274 34.1336Z" fill="#868E96"/>
<path id="Vector_10" d="M36.0117 13.9515C35.6348 12.9189 35.1723 12.0764 34.6814 11.2498C34.5674 11.0597 34.6339 10.9235 34.7131 10.7778C36.794 6.99292 39.6699 4.03466 43.6037 2.17229C44.4779 1.75738 45.3679 1.38047 46.2896 1.08274C46.4099 1.04474 46.5239 0.937049 46.7235 1.0384C41.3803 3.82879 37.8931 8.15215 36.0149 13.9515H36.0117Z" fill="#868E96"/>
<path id="Vector_11" d="M7.18327 1.0127C7.9941 1.16789 8.74475 1.47512 9.48589 1.79502C13.7459 3.63522 16.9385 6.63781 19.1398 10.7205C19.2253 10.8788 19.352 11.0308 19.2253 11.2367C18.7122 12.0539 18.2783 12.9091 17.8602 13.8339C16.0675 8.06626 12.5043 3.81258 7.18327 1.01586V1.0127Z" fill="#868E96"/>
<path id="Vector_12" d="M33.69 9.87822C33.4334 9.84338 33.3732 9.58999 33.2244 9.44746C32.4927 8.75383 31.6977 8.15204 30.7951 7.69912C30.51 7.55659 30.2661 7.40139 30.2946 7.01815C30.3105 6.79961 30.1458 6.65391 30.0001 6.50505C29.4996 5.99828 29.0055 5.48518 28.4829 4.94674C28.9327 4.71869 29.3666 4.45898 29.8354 4.27527C30.1711 4.14225 30.2503 3.94271 30.244 3.61964C30.2313 2.75497 30.2408 1.89347 30.2408 1.02246C31.1466 1.58307 33.6995 8.1362 33.6931 9.87822H33.69Z" fill="#868E96"/>
<path id="Vector_13" d="M20.2266 9.8562C20.7048 6.66991 21.9179 3.77817 23.6061 0.981445C23.6061 1.89996 23.6282 2.72662 23.5966 3.55012C23.5839 3.93336 23.7074 4.15824 24.0527 4.30394C24.4106 4.45597 24.7495 4.65867 25.1105 4.80437C25.4653 4.9469 25.4083 5.06726 25.1676 5.28263C24.7748 5.6342 24.4169 6.02378 24.0305 6.38485C23.774 6.6224 23.5301 6.84728 23.6029 7.24952C23.6314 7.40155 23.5237 7.49024 23.3875 7.55675C22.1998 8.12686 21.1641 8.90602 20.2266 9.85937V9.8562Z" fill="#868E96"/>
</g>
</svg>
