<svg width="69" height="72" viewBox="0 0 69 72" fill="none" xmlns="http://www.w3.org/2000/svg">
<g id="Group">
<path id="Vector" d="M44.857 30.2852C46.9761 30.3013 49.0017 30.8303 50.8595 31.9591C53.7043 33.688 55.517 36.2296 56.6136 39.3292C56.8265 39.9291 56.8265 39.9291 56.2007 39.9775C53.1463 40.2162 50.7208 42.3095 50.0628 45.264C49.9435 45.7994 49.9402 46.3412 49.9596 46.8831C49.9693 47.1444 49.8725 47.2411 49.6209 47.2508C49.3049 47.2605 48.9855 47.3056 48.6694 47.3153C48.4275 47.325 48.3824 47.3734 48.5275 47.5959C49.5339 49.1344 50.5305 50.6794 51.5271 52.2244C51.6626 52.4308 51.7916 52.6437 51.9239 52.8501C52.0948 53.121 52.1497 53.4178 52.1174 53.7306C51.8271 56.6271 51.5368 59.5267 51.2401 62.4231C51.2175 62.6521 51.3046 62.7973 51.453 62.9489C53.443 64.9938 55.3944 67.0774 57.3329 69.1707C57.9779 69.8674 57.7038 70.806 56.8136 71.0027C56.3911 71.0962 56.0814 70.8963 55.8073 70.6157C55.1622 69.9577 54.5364 69.2836 53.8785 68.6417C52.4851 67.2806 51.2014 65.813 49.8112 64.4584C49.1178 63.7842 48.921 63.0876 49.0404 62.1522C49.379 59.488 49.6435 56.8109 49.937 54.1403C49.9532 53.979 49.9144 53.8403 49.8306 53.7048C48.5662 51.689 47.3018 49.6699 46.0407 47.654C45.944 47.5024 45.8472 47.4121 45.6375 47.5056C42.8443 48.7248 40.0447 49.9376 37.2451 51.1406C37.0193 51.2374 36.9612 51.3503 36.9935 51.5954C37.2741 53.721 37.5289 55.853 37.8159 57.9785C37.8772 58.4365 37.7063 58.8107 37.5289 59.1913C36.5419 61.3168 35.5259 63.4294 34.568 65.5679C33.7648 67.3644 32.8779 69.1191 32.0812 70.9156C31.9522 71.2059 31.7812 71.4543 31.4813 71.58C31.0813 71.7478 30.6846 71.7252 30.3556 71.4317C30.0395 71.1511 29.9298 70.7801 30.0556 70.3705C30.2653 69.6932 30.6168 69.0739 30.9136 68.4353C32.4553 65.0905 34.0035 61.7458 35.5614 58.4043C35.7613 57.9753 35.6194 57.5657 35.5743 57.156C35.384 55.5304 35.1679 53.908 34.9679 52.2824C34.9453 52.105 34.9002 52.0438 34.7325 52.1212C34.6583 52.1566 34.5744 52.176 34.5035 52.2147C33.2585 52.8791 31.8973 53.1372 30.533 53.4081C27.7623 53.9564 24.9917 54.5241 22.2243 55.0821C20.9438 55.3401 19.6569 55.582 18.3797 55.8465C16.8863 56.1562 15.4929 56.7787 14.0608 57.2818C10.0645 58.6881 6.08117 60.1266 2.09135 61.549C1.6914 61.691 1.28499 61.7651 0.920521 61.4555C0.288341 60.9233 0.38187 60.0331 1.11404 59.6267C1.49786 59.4138 1.92362 59.3074 2.33325 59.159C7.00687 57.485 11.6869 55.8175 16.3605 54.1435C17.6314 53.6887 18.9602 53.492 20.273 53.2178C23.8241 52.4824 27.3721 51.7406 30.9329 51.0568C32.1424 50.8246 33.2488 50.3633 34.3615 49.8827C34.5647 49.7957 34.5938 49.6892 34.568 49.4763C34.3551 47.8152 34.1551 46.1542 33.9616 44.4931C33.868 43.6996 34.368 43.1449 35.1646 43.2126C35.9484 43.2803 36.729 43.4222 37.5095 43.5351C38.8384 43.7319 40.164 43.9319 41.4929 44.1286C41.5671 44.1383 41.6703 44.1899 41.7122 44.0899C41.7509 44.0028 41.6671 43.9383 41.6155 43.877C40.6478 42.7804 39.9963 41.4805 39.2835 40.2194C38.6029 39.0099 38.3385 37.6907 38.1643 36.3425C38.0256 35.2878 38.0901 34.2234 38.0901 33.1622C38.0901 32.6462 38.3481 32.2688 38.7997 32.0237C40.3027 31.2044 41.8896 30.6335 43.5894 30.4109C43.999 30.3561 44.4087 30.3335 44.8731 30.2884L44.857 30.2852ZM42.1412 46.5186C42.0735 46.3735 41.9638 46.3961 41.88 46.3832C40.077 46.1187 38.2707 45.8607 36.4677 45.5929C36.2516 45.5607 36.1936 45.6349 36.2226 45.8413C36.3516 46.7734 36.4774 47.7088 36.5968 48.641C36.6258 48.8764 36.7161 48.8829 36.9193 48.7925C38.3836 48.1507 39.8544 47.525 41.322 46.8896C41.5961 46.7702 41.867 46.6412 42.1412 46.5186Z" fill="#868E96"/>
<path id="Vector_2" d="M44.7182 27.976C42.683 28.0986 40.7445 28.5856 38.9125 29.4855C38.7254 29.5758 38.5867 29.6016 38.3964 29.479C33.8873 26.5891 29.4782 23.5572 25.3851 20.0963C22.9693 18.0546 20.676 15.8775 18.7472 13.352C17.5893 11.8361 16.5668 10.2459 16.054 8.38164C15.5025 6.37866 15.8669 4.4918 16.8991 2.74363C17.8215 1.1793 19.631 0.618083 21.5501 1.21478C23.4983 1.82116 25.1948 2.90167 26.8204 4.10797C30.0523 6.50123 32.8487 9.35571 35.4581 12.3908C38.4899 15.9194 41.2315 19.6641 43.5441 23.712C44.2537 24.9506 44.8698 26.2343 45.3697 27.5696C45.5181 27.9663 45.5149 27.976 45.1085 27.9663C45.0375 27.9663 44.9666 27.9728 44.8956 27.9728C44.8375 27.9728 44.7763 27.9728 44.7182 27.9728V27.976Z" fill="#868E96"/>
<path id="Vector_3" d="M15.7541 19.3478C17.9571 19.3929 20.0987 19.8283 22.221 20.3831C22.4565 20.4444 22.6403 20.5928 22.8177 20.7476C25.598 23.1924 28.517 25.4664 31.5522 27.5854C32.8843 28.5144 34.2292 29.4304 35.6065 30.2948C35.7 30.3528 35.8581 30.3883 35.8323 30.5335C35.8065 30.6818 35.6387 30.6335 35.5355 30.6657C34.0067 31.1721 32.4553 31.6204 30.9522 32.1978C29.8879 32.6042 28.8622 32.6687 27.7526 32.4623C24.9078 31.9268 22.0662 31.3688 19.3117 30.4625C17.2281 29.7755 15.2026 28.9562 13.4222 27.6242C11.8772 26.4695 11.0837 24.8922 10.9257 23.0183C10.8031 21.6023 11.5288 20.4025 13.0157 19.7832C13.8898 19.4187 14.8155 19.3445 15.7541 19.3478Z" fill="#868E96"/>
<path id="Vector_4" d="M59.5876 52.9792C59.4327 53.2469 59.3876 53.5404 59.3038 53.8146C58.7554 55.6402 58.2265 57.4722 57.6749 59.2978C57.591 59.5784 57.6749 59.7687 57.8265 59.9751C59.5553 62.3168 61.2842 64.6617 63.0097 67.0033C63.171 67.2226 63.3387 67.4387 63.471 67.671C63.7645 68.1902 63.6645 68.7063 63.2323 69.0256C62.7259 69.3998 62.184 69.3804 61.7905 68.8837C61.0938 68.0096 60.4423 67.0968 59.7747 66.1969C58.478 64.4455 57.1846 62.6909 55.888 60.9363C55.7751 60.7847 55.6687 60.6299 55.5623 60.4751C55.33 60.1332 55.2655 59.7752 55.3881 59.3688C56.117 56.9207 56.8331 54.4694 57.5523 52.0213C57.6201 51.7955 57.6846 51.5697 57.7491 51.3439C57.8588 50.9569 57.8587 50.9472 57.4588 51.0053C56.2686 51.1794 55.1946 50.8795 54.2044 50.228C52.64 49.1926 51.6176 46.7768 52.6626 44.6609C53.6883 42.5837 55.8816 41.6161 58.1136 42.2515C60.1165 42.8224 61.8195 45.3608 61.0454 47.7444C61.0229 47.8121 61.0164 47.8863 60.981 47.9444C60.6229 48.5572 60.7519 49.17 60.9229 49.8119C61.4809 51.8923 62.0098 53.9791 62.5388 56.0659C62.6065 56.3304 62.7323 56.4949 62.9742 56.6143C64.0805 57.1626 65.1836 57.7173 66.2835 58.2818C66.9125 58.6011 67.5317 58.9366 68.151 59.272C68.4284 59.4204 68.6477 59.63 68.78 59.9203C68.9187 60.2299 69.038 60.5557 68.7864 60.8492C68.5252 61.1556 68.1639 61.2653 67.7672 61.1911C67.5866 61.1556 67.406 61.0814 67.2383 60.9976C65.3514 60.059 63.471 59.1107 61.5841 58.1754C61.1551 57.9625 60.8809 57.6561 60.7616 57.1819C60.4294 55.8821 60.0714 54.5887 59.7263 53.2921C59.6972 53.1824 59.6908 53.0663 59.5876 52.9631V52.9792Z" fill="#868E96"/>
<path id="Vector_5" d="M33.481 41.0322C33.4713 41.5257 33.4552 42.0224 33.3971 42.5127C33.3713 42.7256 33.2874 42.8449 33.0842 42.9256C31.1684 43.6739 29.2524 44.4286 27.343 45.193C27.0979 45.2898 27.0011 45.2962 26.9947 44.9769C26.9495 42.7127 26.3947 40.5807 25.3271 38.5809C25.0691 38.1003 24.753 37.6617 24.395 37.2553C24.2724 37.1166 24.1724 37.0134 24.4563 36.9102C26.5238 36.1587 28.5848 35.3942 30.6426 34.6234C30.8361 34.5524 30.9619 34.546 31.1038 34.7137C32.236 36.02 33.0391 37.4875 33.3519 39.2034C33.4616 39.8098 33.4939 40.4194 33.4842 41.0322H33.481Z" fill="#868E96"/>
<path id="Vector_6" d="M24.7788 45.316C24.8981 46.103 24.6143 46.5417 23.8208 46.8352C22.1759 47.4384 20.618 48.2544 19.0311 48.9962C18.9375 49.0382 18.8376 49.1446 18.7408 49.0801C18.6279 49.0059 18.7021 48.8672 18.7118 48.7543C18.8988 46.7062 18.686 44.729 17.6571 42.9034C17.299 42.2648 16.8733 41.6713 16.3443 41.1585C16.2024 41.0198 16.1992 40.9553 16.3863 40.8553C18.0861 39.9135 19.8278 39.0555 21.5953 38.2492C21.8114 38.1492 21.9759 38.1943 22.1501 38.3169C22.5823 38.6201 22.9274 39.0039 23.2016 39.449C24.0853 40.894 24.5272 42.4809 24.6981 44.1517C24.7369 44.5387 24.7562 44.9258 24.782 45.316H24.7788Z" fill="#868E96"/>
<path id="Vector_7" d="M16.6217 47.7798C16.5733 48.7442 16.512 49.399 16.4282 50.0537C16.4088 50.2182 16.3669 50.3505 16.1959 50.415C15.6541 50.6182 15.1509 50.902 14.638 51.1633C13.8736 51.5503 13.0737 51.818 12.2126 51.8535C10.2709 51.9374 8.92909 50.3537 9.29678 48.4346C9.55481 47.0896 10.2063 45.9445 11.0675 44.9092C11.9255 43.8771 12.9544 43.0352 14.0284 42.2418C14.2284 42.0934 14.3413 42.174 14.48 42.3063C15.3831 43.1739 16.0153 44.2061 16.3346 45.422C16.5636 46.2961 16.641 47.1831 16.6217 47.7798Z" fill="#868E96"/>
<path id="Vector_8" d="M35.9483 34.4884C35.9419 36.5656 36.1677 38.604 37.003 40.5361C37.1095 40.7844 37.2191 41.036 37.3578 41.265C37.4836 41.4747 37.4255 41.5392 37.2127 41.6005C36.7837 41.7295 36.358 41.8714 35.9451 42.0359C35.6968 42.1359 35.6709 42.052 35.6806 41.8295C35.7387 40.3393 35.6451 38.8621 35.2452 37.4139C34.9033 36.1785 34.4195 35.0077 33.6164 33.9917C33.4357 33.7627 33.468 33.6821 33.7357 33.5982C34.3518 33.4015 34.9549 33.166 35.5709 32.966C35.958 32.8402 35.958 32.8564 35.9483 33.2821C35.9419 33.6821 35.9483 34.0853 35.9483 34.4852V34.4884Z" fill="#868E96"/>
</g>
</svg>
