<svg width="77" height="55" viewBox="0 0 77 55" fill="none" xmlns="http://www.w3.org/2000/svg">
<g id="Group">
<path id="Vector" d="M35.8743 45.7832C35.0702 45.7489 34.2661 45.8206 33.462 45.7395C32.1934 45.6117 31.2896 44.9541 30.7036 43.8414C30.3608 43.1869 30.0117 42.5355 29.5505 41.9496C29.3074 41.641 29.0424 41.3605 28.737 41.1143C27.9952 40.519 27.2036 40.3632 26.306 40.7528C24.3019 41.6192 22.2418 42.3142 20.1068 42.7818C17.9687 43.2493 15.8151 43.5391 13.6178 43.2337C10.071 42.7381 7.65552 40.8276 6.35273 37.4958C5.91639 36.38 5.639 35.2237 5.47069 34.0362C5.45199 33.8991 5.48315 33.7121 5.3429 33.6498C5.17148 33.575 5.10916 33.7807 5.025 33.8742C3.64741 35.3982 2.435 37.0283 1.95502 39.076C1.42206 41.3481 1.80854 43.4612 3.22041 45.3437C5.63275 48.5602 8.83674 50.6858 12.5924 52.0072C14.7305 52.7584 16.9433 53.1667 19.2154 53.282C21.528 53.3973 23.8375 53.4067 26.1408 53.1667C29.217 52.8456 32.2371 52.2223 35.1886 51.2935C35.3382 51.2468 35.4847 51.1938 35.6343 51.1564C36.0052 51.066 36.239 51.1938 36.3667 51.546C36.4821 51.867 36.3823 52.1039 36.0145 52.2535C34.7398 52.774 33.409 53.123 32.0688 53.4254C28.1885 54.3011 24.2583 54.7063 20.2845 54.5817C16.7314 54.4695 13.2376 53.9084 10.0273 52.3158C7.2254 50.9257 4.62605 49.2115 2.6781 46.6714C1.43142 45.0476 0.633548 43.2524 0.508879 41.186C0.468362 40.519 0.571209 39.8645 0.698995 39.2162C1.14469 36.8974 2.32903 34.9775 3.92791 33.2851C4.25828 32.936 4.59802 32.5963 4.95021 32.2691C5.14344 32.0914 5.20266 31.92 5.14344 31.6551C4.80683 30.1466 4.53567 28.6131 4.56684 27.0704C4.6354 23.7822 5.44887 20.6904 7.25657 17.8979C8.83363 15.4637 10.9249 13.5719 13.3716 12.0571C16.3605 10.2058 19.6268 9.06508 23.0428 8.31395C25.3148 7.81215 27.6181 7.51918 29.9338 7.35088C30.8969 7.28231 31.8537 7.42568 32.8043 7.55035C35.6125 7.91812 38.3646 8.53835 41.0418 9.4796C41.7026 9.71024 42.3353 10.0281 43.0209 10.1746C44.7133 10.5331 46.2623 10.131 47.6929 9.20845C48.4128 8.74717 49.0642 8.18616 49.8372 7.79657C50.3857 7.5223 50.9592 7.32906 51.5389 7.14206C51.8755 7.03297 51.7945 7.29478 51.7883 7.45061C51.7633 8.3607 51.8038 9.26766 52.0033 10.159C52.4677 12.2285 53.518 13.9178 55.2509 15.1676C56.0021 15.7099 56.8155 15.9219 57.6539 15.4388C59.3494 14.4601 60.8454 13.2508 61.7773 11.4712C62.3695 10.3429 62.6656 9.14923 62.5316 7.87137C62.5004 7.57528 62.541 7.4662 62.8931 7.49113C63.6038 7.541 64.3206 7.51606 65.0343 7.52853C67.1381 7.56593 69.0705 8.14564 70.8065 9.3487C71.5857 9.88789 72.3306 10.4769 73.169 10.9226C73.5274 11.1128 73.8952 11.2468 74.3066 11.2873C75.6156 11.4088 76.2919 12.0384 76.4602 13.3537C76.7407 15.5697 75.4379 18.97 72.0314 19.3565C71.542 19.4126 71.1462 19.637 70.8065 19.9736C70.0928 20.6811 69.2294 21.0364 68.2258 21.0925C66.7485 21.1766 65.2837 21.4011 63.8063 21.4821C63.1456 21.5195 62.5628 21.8343 62.0142 22.1896C60.3624 23.2649 59.0222 24.6674 57.8347 26.2289C57.5823 26.5592 57.3641 26.9145 57.0898 27.2262C56.0332 28.4386 55.5969 29.8816 55.5221 31.4462C55.4286 33.4129 55.7403 35.3203 56.3761 37.1841C56.5818 37.7888 56.962 38.1534 57.5449 38.3872C58.3895 38.7238 59.2622 38.97 60.1286 39.2412C60.6616 39.4063 61.1758 39.6183 61.6558 39.9144C62.2262 40.2634 62.5939 40.759 62.7498 41.4104C62.996 42.442 62.488 43.3583 61.4439 43.5609C59.3183 43.9755 57.202 44.044 55.1076 43.2991C53.6645 42.7849 52.4802 41.906 51.3956 40.865C50.3172 39.8302 49.2855 38.7487 48.3536 37.5831C47.2223 36.1681 45.692 35.5291 43.984 35.1894C42.8838 34.9681 41.768 34.9463 40.6522 34.9307C40.4683 34.9307 40.2969 34.9744 40.1317 35.0616C38.2118 36.0808 36.4073 37.2714 34.7118 38.6334C34.5528 38.7612 34.4624 38.889 34.5403 39.0947C34.5497 39.1196 34.5497 39.1445 34.5528 39.1726C34.5933 40.6842 35.5127 41.4073 36.8592 41.747C37.2363 41.8436 37.6165 41.9247 37.9874 42.0337C38.8944 42.3049 39.5427 43.1121 39.6331 44.0534C39.7172 44.9292 39.1936 45.6055 38.3209 45.7271C37.5074 45.8393 36.6878 45.7426 35.8712 45.78L35.8743 45.7832ZM66.0286 11.6644C65.5735 11.6551 65.2276 11.7517 64.9845 11.9231C64.6884 12.1288 64.5699 12.5433 64.7195 12.8488C64.8442 13.1043 65.2587 13.2415 65.5798 13.0482C65.9444 12.827 66.2249 12.9485 66.5054 13.1542C66.7236 13.3132 66.9231 13.5033 67.1288 13.6809C67.4778 13.9833 67.7989 13.9957 68.0918 13.7215C68.338 13.4939 68.3443 13.1573 68.07 12.8083C67.5215 12.107 66.8046 11.7112 66.0286 11.6675V11.6644Z" fill="#868E96"/>
<path id="Vector_2" d="M53.0662 7.89901C53.0351 6.05079 53.5618 4.4301 55.0173 3.2177C55.9087 2.4728 56.8998 2.02087 58.0997 2.38553C58.6234 2.54448 59.0878 2.81875 59.4275 3.23328C61.0762 5.25603 61.7931 7.52812 60.9422 10.0776C60.2846 12.0474 58.8291 13.3564 57.0276 14.3132C56.7003 14.4878 56.4323 14.3849 56.158 14.2072C54.768 13.3065 53.9015 12.0193 53.4184 10.461C53.1597 9.62567 53.0569 8.76546 53.0662 7.89901Z" fill="#868E96"/>
<path id="Vector_3" d="M64.598 6.28487C63.8998 6.31292 63.3326 6.23812 62.7654 6.20072C62.488 6.18202 62.3197 6.08229 62.248 5.7862C61.849 4.14057 60.9576 2.8035 59.6517 1.73758C59.3899 1.52564 59.5988 1.47889 59.739 1.40721C61.6589 0.441023 63.9497 1.17033 64.9377 3.07777C65.4083 3.98785 65.6296 4.96962 65.6452 5.99813C65.6483 6.21319 65.5953 6.30357 65.3678 6.28799C65.0717 6.26929 64.7725 6.28487 64.598 6.28487Z" fill="#868E96"/>
</g>
</svg>
