<svg width="67" height="59" viewBox="0 0 67 59" fill="none" xmlns="http://www.w3.org/2000/svg">
<g id="Group">
<path id="Vector" d="M45.612 0.990688C50.3463 0.990688 55.0836 0.990688 59.8178 0.990688C61.2366 0.990688 62.5979 1.22664 63.7898 2.06459C65.387 3.1869 66.2794 4.71457 66.4428 6.66878C66.5063 7.44018 66.5003 8.2146 66.5003 8.986C66.5003 15.6442 66.5003 22.3024 66.5003 28.9637C66.5003 29.7895 66.467 30.6154 66.2492 31.4231C65.5776 33.9067 63.3754 35.7036 60.804 35.8609C58.874 35.9789 56.941 35.8881 55.008 35.9093C53.6769 35.9244 52.3459 35.9153 51.0148 35.9032C50.7426 35.9032 50.6851 35.9547 50.7819 36.2239C51.9738 39.4608 53.1566 42.7036 54.3455 45.9435C55.5253 49.1622 56.7111 52.3809 57.8969 55.5996C58.024 55.9414 58.1571 56.2833 58.1904 56.6493C58.2599 57.457 57.791 58.2466 57.0892 58.5188C56.2513 58.8425 55.3468 58.6126 54.8204 57.941C54.5844 57.6415 54.4483 57.2906 54.3213 56.9367C51.8346 50.1665 49.348 43.3964 46.8614 36.6262C46.5952 35.9002 46.5922 35.9032 45.8268 35.9002C45.2006 35.9002 45.2006 35.8972 44.9919 36.4659C42.5325 43.2361 40.0761 50.0062 37.6137 56.7764C37.5048 57.0789 37.3989 57.3844 37.2386 57.6627C36.7455 58.5218 35.723 58.9 34.8609 58.543C33.9866 58.18 33.4723 57.1969 33.7718 56.2591C34.1893 54.9522 34.6794 53.6696 35.1482 52.3809C37.0813 47.0507 39.0204 41.7235 40.9564 36.3963C41.0754 36.0676 40.9544 35.9032 40.5934 35.9032C39.9279 35.9032 39.2624 35.9032 38.5968 35.9032C38.4547 35.9032 38.3337 35.9032 38.3942 35.6945C38.6725 34.7537 38.6906 33.7887 38.6634 32.8207C38.6573 32.618 38.7209 32.4425 38.8056 32.2671C39.8795 30.0951 40.9443 27.917 42.0303 25.751C42.4145 24.9857 42.8562 24.2476 43.1405 23.4338C44.3657 19.9156 41.9698 16.1313 38.2671 15.7955C35.8319 15.5746 33.917 16.5154 32.6525 18.6209C31.742 20.1365 31.0523 21.7761 30.2446 23.3491C30.1175 23.5942 30.0207 23.6214 29.7878 23.5064C28.4053 22.8167 27.0198 22.1391 25.6313 21.4615C25.4226 21.3586 25.3469 21.2376 25.35 20.9926C25.3621 18.3608 25.3591 15.7289 25.3591 13.1001C25.3591 11.2306 25.353 9.36111 25.3621 7.49463C25.3681 6.00024 25.7009 4.59659 26.6477 3.39866C27.7791 1.97081 29.2493 1.17219 31.0795 1.03606C31.8751 0.975561 32.6677 0.981614 33.4603 0.981614C37.5078 0.981614 41.5584 0.981614 45.606 0.981614L45.612 0.990688ZM47.1548 13.1122C49.3752 13.1364 52.8299 13.0638 56.2876 13.1394C57.7124 13.1697 58.6562 11.7025 58.0391 10.4411C57.6186 9.57891 56.8986 9.26128 55.9639 9.26128C49.8653 9.27338 43.7667 9.27339 37.6712 9.27339C36.9936 9.27339 36.319 9.24918 35.6413 9.25825C34.4615 9.2764 33.6327 10.0932 33.6357 11.2034C33.6387 12.2168 34.5069 13.1304 35.6746 13.1213C39.0869 13.0941 42.5022 13.1122 47.1518 13.1122H47.1548ZM52.0252 20.3876C52.0252 20.3876 52.0252 20.3876 52.0252 20.3906C53.4833 20.3906 54.9444 20.4087 56.4025 20.3845C57.1497 20.3724 57.7063 19.9822 58.0391 19.3137C58.3779 18.63 58.2962 17.9584 57.8727 17.3322C57.3887 16.6213 56.6566 16.4731 55.8641 16.4731C53.2564 16.4731 50.6488 16.4731 48.0412 16.4731C47.8052 16.4731 47.5693 16.4912 47.3363 16.5275C46.5468 16.6576 45.9992 17.0932 45.7603 17.8646C45.5243 18.6179 45.7058 19.2804 46.2776 19.834C46.6799 20.2182 47.1669 20.3845 47.7114 20.3845C49.1484 20.3876 50.5883 20.3845 52.0252 20.3845V20.3876ZM51.8588 23.7575C51.8588 23.7575 51.8588 23.7847 51.8588 23.7999C50.3886 23.7999 48.9185 23.7787 47.4513 23.8089C46.4923 23.8301 45.7814 24.538 45.6816 25.4818C45.5788 26.4498 46.1535 27.3211 47.0701 27.5691C47.3938 27.6568 47.7296 27.6478 48.0623 27.6478C50.5096 27.6448 52.9539 27.6357 55.4012 27.6266C55.8187 27.6266 56.2361 27.678 56.6536 27.6145C57.67 27.4602 58.4203 26.3984 58.2176 25.388C58.0088 24.3535 57.2647 23.7575 56.1756 23.7575C54.7387 23.7575 53.3018 23.7575 51.8619 23.7575H51.8588Z" fill="#868E96"/>
<path id="Vector_2" d="M13.9026 21.7763C14.4804 21.7763 15.0581 21.743 15.6329 21.7823C17.1515 21.8882 18.5582 22.3874 19.9376 23.0105C22.3426 24.0965 24.6689 25.3398 27.0375 26.4954C28.55 27.2336 30.0475 28.0019 31.5449 28.7673C31.7808 28.8883 31.8867 28.858 32.0047 28.6069C33.245 25.9691 34.5579 23.3645 35.9161 20.7841C36.6028 19.4772 38.1456 19.2352 39.0653 20.2849C39.6188 20.9172 39.7157 21.6553 39.3496 22.4146C38.6659 23.8364 37.9702 25.2491 37.2653 26.6588C36.4213 28.3468 35.5652 30.0287 34.7031 31.7077C34.5912 31.9255 34.5791 32.1282 34.6275 32.3581C35.057 34.3758 34.4369 36.0668 32.9062 37.3858C31.3664 38.7107 29.5695 39.0375 27.6698 38.3024C25.8002 37.5794 24.0427 36.5992 22.2579 35.6826C21.916 35.5072 21.5681 35.3378 21.2293 35.1502C20.9843 35.0141 20.9238 35.0806 20.9268 35.3499C20.9329 38.3235 20.9268 41.3002 20.9268 44.2739C20.9268 48.3335 20.9268 52.3932 20.9268 56.4529C20.9268 57.9231 20.1252 58.7338 18.661 58.7338C14.7738 58.7338 10.8865 58.7338 6.99931 58.7338C6.7089 58.7338 6.4185 58.7126 6.13716 58.6431C5.23266 58.4222 4.64277 57.6448 4.64277 56.6737C4.64277 53.2039 4.64277 49.7342 4.6458 46.2644C4.6458 46.0254 4.60041 45.9014 4.35235 45.7925C2.06236 44.7821 0.755526 43.0336 0.57402 40.5198C0.425791 38.4627 0.552841 36.3966 0.513515 34.3365C0.492339 33.2232 0.643603 32.1342 0.900735 31.0542C2.03817 26.2807 6.16741 22.5356 11.0318 21.8549C11.3857 21.8065 11.7487 21.8156 12.0996 21.7309C6.61209 21.1108 3.93187 16.0982 4.44613 12.22C4.98762 8.11801 8.45134 4.94167 12.6653 4.87512C16.9004 4.80856 20.2946 7.78828 21.0448 11.7118C21.4986 14.0835 20.9601 16.2525 19.5595 18.2037C18.1619 20.1579 16.2077 21.2197 13.8632 21.622C13.8753 21.6704 13.8844 21.7188 13.8965 21.7672L13.9026 21.7763Z" fill="#868E96"/>
</g>
</svg>
