<svg width="32" height="33" viewBox="0 0 32 33" fill="none" xmlns="http://www.w3.org/2000/svg">
<g id="facebook" clip-path="url(#clip0_185_15839)">
<path id="Vector" d="M31.5 16.9805C31.5 24.7119 25.8417 31.1187 18.4375 32.2874V22.368H22.2687H22.6851L22.7605 21.9585L23.6605 17.071L23.7692 16.4805H23.1688H18.4438V15.243C18.4438 13.999 18.6912 13.2739 19.1285 12.8442C19.5682 12.4122 20.3118 12.168 21.5812 12.168C22.3948 12.168 23.0315 12.193 23.3815 12.228L23.9312 12.283V11.7305V7.30547V6.9256L23.5653 6.82377C22.7901 6.60805 20.9922 6.40547 19.95 6.40547C17.2053 6.40547 15.0959 7.05279 13.6802 8.49863C12.2667 9.94227 11.6375 12.0877 11.6375 14.8742V16.4805H8.8375H8.3375V16.9805V21.868V22.368H8.8375H11.6375V31.8585C5.20221 29.971 0.5 24.0208 0.5 16.9805C0.5 8.41911 7.43864 1.48047 16 1.48047C24.5614 1.48047 31.5 8.41911 31.5 16.9805Z" fill="#C8CCD0" stroke="#C8CCD0"/>
</g>
<defs>
<clipPath id="clip0_185_15839">
<rect width="32" height="32" fill="white" transform="translate(0 0.980469)"/>
</clipPath>
</defs>
</svg>
