<svg width="24" height="25" viewBox="0 0 24 25" fill="none" xmlns="http://www.w3.org/2000/svg">
<g id="phone">
<path id="Vector" d="M21.9979 3.23566L17.6181 2.22494C17.1423 2.11545 16.6537 2.36392 16.46 2.81032L14.4386 7.52702C14.2617 7.93973 14.3796 8.42403 14.7292 8.70619L17.2812 10.795C15.7652 14.0251 13.1162 16.7119 9.81875 18.2575L7.72992 15.7054C7.44355 15.3559 6.96346 15.238 6.55075 15.4148L1.83404 17.4363C1.38343 17.6342 1.13496 18.1227 1.24446 18.5986L2.25518 22.9784C2.36046 23.4332 2.76475 23.7617 3.24063 23.7617C14.0259 23.7617 22.7812 15.0232 22.7812 4.22112C22.7812 3.74945 22.457 3.34095 21.9979 3.23566Z" fill="#C8CCD0"/>
</g>
</svg>
